<svg width="128" height="133" viewBox="0 0 128 133" fill="none" xmlns="http://www.w3.org/2000/svg">
<path d="M7.1981 25.3177L9.0061 23.3656C9.48617 22.8466 10.2992 22.8156 10.818 23.2959L29.2232 40.3653C29.742 40.8456 29.773 41.659 29.2929 42.178L27.4849 44.1301C27.0048 44.6491 26.1918 44.6801 25.673 44.1998L7.26779 27.1304C6.749 26.6501 6.71803 25.8368 7.1981 25.3177Z" fill="#FBF8F0"/>
<path d="M34.9879 35.7307C33.2457 35.5757 31.6313 34.9521 30.1485 33.8599C28.6657 32.7676 27.4384 31.3074 26.4666 29.4715C25.4833 27.6162 24.9606 25.7609 24.8987 23.9095C24.8367 22.0581 25.2471 20.3693 26.1259 18.8433C27.0048 17.3172 28.3056 16.101 30.0246 15.1869C31.0428 14.6486 32.0571 14.3038 33.0676 14.1605C33.7529 14.0637 34.4304 14.0521 35.0963 14.1334C35.4796 14.1799 35.7544 13.7771 35.5725 13.4362C35.4486 13.2038 35.5376 12.9133 35.7699 12.7894L38.9988 11.0774C39.2311 10.9535 39.5214 11.0426 39.6453 11.275L48.9138 28.7704C49.0377 29.0028 48.9486 29.2933 48.7163 29.4173L45.4875 31.1292C45.2552 31.2532 44.9648 31.1641 44.8409 30.9317L44.8177 30.8891C44.6396 30.5521 44.1518 30.5521 43.9737 30.8891C43.6524 31.5049 43.242 32.0821 42.7464 32.6243C42.0263 33.4106 41.1552 34.0768 40.137 34.6152C38.4413 35.5138 36.7184 35.8856 34.9763 35.7307H34.9879ZM34.5814 30.3236C35.8551 30.9666 37.2372 30.8968 38.7162 30.1106C40.1293 29.3592 40.9074 28.3211 41.0507 26.9926C41.1939 25.6641 40.8029 24.1187 39.8699 22.3641C38.9485 20.6211 37.8993 19.4281 36.7262 18.7891C35.5531 18.15 34.2716 18.1965 32.8818 18.9362C31.9642 19.4204 31.2906 20.0672 30.8531 20.8729C30.4156 21.6785 30.2414 22.5965 30.3266 23.6306C30.4117 24.6648 30.7602 25.7609 31.3719 26.9151C32.2352 28.5458 33.3038 29.6806 34.5814 30.3236Z" fill="#FBF8F0"/>
<path d="M56.9362 28.3088L57.1879 37.2095C57.1956 37.4264 57.0214 37.6085 56.8046 37.6124L52.3291 37.7402C52.1123 37.7479 51.9303 37.5736 51.9264 37.3567L51.1018 8.17565C51.0941 7.95875 51.2683 7.7767 51.4851 7.77283L55.3063 7.66438C55.5231 7.65663 55.7051 7.83093 55.7089 8.04783C55.7167 8.35769 56.069 8.53586 56.3245 8.35769C57.6447 7.45522 59.2127 6.97881 61.0207 6.92459C62.968 6.87036 64.6986 7.28867 66.2163 8.17952C67.7339 9.07424 68.9225 10.3408 69.7819 11.9831C70.6414 13.6253 71.1021 15.4961 71.1602 17.5954C71.2183 19.656 70.8698 21.5306 70.1188 23.2194C69.3638 24.9081 68.2759 26.2482 66.8512 27.2437C65.4265 28.2391 63.7772 28.762 61.9111 28.8162C60.2657 28.8627 58.7984 28.5722 57.5014 27.9408C57.2382 27.813 56.9323 28.0144 56.9401 28.3049L56.9362 28.3088ZM60.9316 24.1915C62.5461 24.1451 63.7424 23.5253 64.5283 22.3324C65.3142 21.1394 65.682 19.6134 65.6278 17.7542C65.5929 16.5651 65.38 15.5 64.9812 14.5626C64.5825 13.6253 63.9979 12.8894 63.2274 12.3549C62.457 11.8204 61.5085 11.5686 60.3819 11.5996C58.8062 11.6422 57.6679 12.2348 56.9633 13.3697C56.2587 14.5045 55.9335 16.0577 55.9915 18.0292C56.1116 22.2278 57.757 24.2845 60.9316 24.1954V24.1915Z" fill="#FBF8F0"/>
<path d="M93.1064 7.12604L95.8242 8.42358C96.3778 8.68696 96.6101 9.34928 96.3468 9.89929L85.3982 32.8793C85.1349 33.4332 84.4729 33.6656 83.9231 33.4022L81.2053 32.1046C80.6517 31.8412 80.4194 31.1789 80.6826 30.6289L91.6313 7.64893C91.8946 7.09505 92.5566 6.86266 93.1064 7.12604Z" fill="#FBF8F0"/>
<path d="M91.6164 36.8491C91.2448 35.141 91.357 33.4135 91.9532 31.6705C92.5495 29.9276 93.5793 28.3202 95.035 26.8445C96.51 25.3494 98.1245 24.2959 99.8705 23.6839C101.62 23.0719 103.351 22.9557 105.07 23.343C106.789 23.7265 108.338 24.6018 109.724 25.973C110.544 26.7825 111.172 27.6501 111.613 28.5719C111.911 29.1994 112.124 29.8424 112.248 30.5008C112.317 30.8804 112.786 31.0237 113.057 30.7487C113.243 30.5628 113.545 30.5589 113.731 30.7448L116.332 33.3167C116.518 33.5026 116.522 33.8047 116.336 33.9906L102.422 48.0699C102.236 48.2558 101.934 48.2597 101.748 48.0737L99.1465 45.5019C98.9607 45.316 98.9568 45.0139 99.1427 44.828L99.1775 44.7931C99.4485 44.522 99.3014 44.0572 98.9259 43.9875C98.2445 43.8635 97.567 43.6466 96.9049 43.3368C95.9371 42.8836 95.0466 42.2522 94.2258 41.4427C92.8592 40.091 91.992 38.561 91.6203 36.8529L91.6164 36.8491ZM96.6494 34.8427C96.4171 36.2526 96.8972 37.5462 98.0896 38.7276C99.2278 39.8547 100.451 40.2846 101.764 40.0251C103.076 39.7656 104.427 38.929 105.825 37.5153C107.211 36.1131 108.036 34.7536 108.295 33.4445C108.554 32.1353 108.125 30.923 107.006 29.8152C106.27 29.0871 105.449 28.6339 104.555 28.4557C103.657 28.2814 102.728 28.386 101.768 28.7772C100.804 29.1684 99.8667 29.8269 98.9452 30.7564C97.6483 32.0695 96.8856 33.429 96.6533 34.8388L96.6494 34.8427Z" fill="#FBF8F0"/>
<path d="M26.3972 73.1994L26.9005 76.3057C26.9856 76.8247 26.6333 77.3128 26.1145 77.398L1.60777 81.3603C1.08898 81.4455 0.601171 81.0931 0.515998 80.574L0.0126989 77.4677C-0.0724747 76.9487 0.279834 76.4606 0.798619 76.3754L25.3054 72.4131C25.8242 72.3279 26.312 72.6803 26.3972 73.1994Z" fill="#FBF8F0"/>
<path d="M5.81633 95.3546C5.90537 93.6658 6.44739 92.0856 7.45011 90.6137C8.44897 89.1419 9.81562 87.9025 11.5539 86.8993C13.3116 85.8845 15.0809 85.3112 16.8657 85.1873C18.6504 85.0634 20.2958 85.3965 21.8019 86.1943C23.304 86.9884 24.5274 88.2007 25.4721 89.8313C26.0296 90.7958 26.3974 91.7641 26.5716 92.7363C26.6916 93.3986 26.7226 94.0532 26.6723 94.7C26.6413 95.068 27.0439 95.3197 27.3614 95.1338C27.5821 95.006 27.8647 95.0835 27.9924 95.3004L29.7617 98.3602C29.8895 98.581 29.8121 98.8638 29.5953 98.9916L13.0406 108.574C12.8199 108.702 12.5373 108.624 12.4095 108.407L10.6403 105.348C10.5125 105.127 10.5899 104.844 10.8067 104.716L10.8416 104.697C11.1629 104.511 11.1474 104.038 10.8145 103.88C10.2105 103.589 9.63753 103.217 9.09551 102.756C8.30959 102.09 7.63595 101.273 7.07845 100.308C6.14928 98.7011 5.72728 97.0511 5.81633 95.3662V95.3546ZM11.0197 94.7659C10.4428 96.0208 10.5628 97.3493 11.3758 98.7553C12.1501 100.095 13.1838 100.808 14.4731 100.901C15.7623 100.99 17.2373 100.556 18.8982 99.5958C20.5475 98.643 21.6586 97.5856 22.2355 96.4313C22.8123 95.2771 22.7194 94.0377 21.9567 92.7208C21.4534 91.8532 20.8069 91.2218 20.0171 90.8306C19.2234 90.4394 18.333 90.3 17.3341 90.4201C16.3391 90.5401 15.2938 90.9158 14.2021 91.5472C12.6612 92.438 11.6004 93.5148 11.0274 94.7697L11.0197 94.7659Z" fill="#FBF8F0"/>
<path d="M26.3774 121.088L21.8167 128.382C21.7045 128.56 21.4722 128.614 21.2941 128.502L17.6239 126.205C17.4458 126.092 17.3916 125.86 17.5039 125.682L32.4518 101.765C32.5641 101.586 32.7964 101.532 32.9745 101.645L36.1065 103.604C36.2846 103.717 36.3388 103.949 36.2266 104.127C36.0678 104.383 36.2537 104.712 36.5556 104.708C38.1043 104.689 39.618 105.142 41.0969 106.072C42.692 107.071 43.8612 108.334 44.6046 109.864C45.3479 111.393 45.6266 113.051 45.4408 114.833C45.255 116.615 44.6239 118.365 43.5476 120.089C42.4907 121.778 41.2092 123.102 39.6993 124.055C38.1894 125.008 36.5982 125.504 34.918 125.542C33.2377 125.581 31.6311 125.12 30.1018 124.16C28.7545 123.315 27.7286 122.293 27.0201 121.092C26.8768 120.848 26.5245 120.844 26.3735 121.084L26.3774 121.088ZM31.7937 119.918C33.1139 120.747 34.4108 120.887 35.6845 120.348C36.9544 119.806 38.0694 118.776 39.0179 117.254C39.6296 116.278 40.0245 115.305 40.2065 114.337C40.3885 113.369 40.311 112.466 39.9781 111.622C39.6451 110.778 39.0141 110.069 38.0926 109.492C36.8034 108.686 35.5684 108.547 34.3953 109.085C33.2223 109.62 32.1305 110.696 31.12 112.315C28.9674 115.759 29.192 118.292 31.7937 119.922V119.918Z" fill="#FBF8F0"/>
<path d="M60.3195 106.137L63.738 106.285C64.1871 106.304 64.5356 106.684 64.5162 107.133L63.4438 132.22C63.4245 132.669 63.045 133.018 62.5959 132.998L59.1774 132.851C58.7283 132.832 58.3798 132.452 58.3992 132.003L59.4716 106.916C59.491 106.467 59.8704 106.118 60.3195 106.137Z" fill="#FBF8F0"/>
<path d="M77.9668 130.822C76.333 130.388 74.9005 129.528 73.6655 128.246C72.4305 126.964 71.5013 125.368 70.878 123.467C70.247 121.538 70.0534 119.686 70.2973 117.912C70.5412 116.138 71.2071 114.597 72.2989 113.288C73.3868 111.979 74.8231 111.034 76.6118 110.445C77.6687 110.096 78.6908 109.937 79.678 109.964C80.3478 109.984 80.9982 110.085 81.6176 110.27C81.9738 110.375 82.299 110.034 82.1829 109.686C82.1055 109.445 82.2371 109.182 82.4771 109.105L85.8337 108.005C86.0738 107.927 86.337 108.059 86.4145 108.299L92.3766 126.48C92.4541 126.72 92.3224 126.984 92.0824 127.061L88.7258 128.161C88.4857 128.238 88.2225 128.107 88.145 127.867L88.1334 127.828C88.0173 127.475 87.5527 127.394 87.3282 127.685C86.9216 128.219 86.4377 128.699 85.8763 129.137C85.0594 129.768 84.1264 130.26 83.0656 130.605C81.3002 131.182 79.6045 131.256 77.9707 130.822H77.9668ZM78.4624 125.609C79.5735 126.43 80.8975 126.588 82.4384 126.081C83.9096 125.597 84.8194 124.737 85.1756 123.494C85.5279 122.25 85.4079 120.717 84.8117 118.892C84.2193 117.08 83.414 115.774 82.4036 114.973C81.3931 114.171 80.162 114.008 78.7179 114.481C77.7655 114.794 77.0144 115.298 76.4685 115.991C75.9226 116.685 75.6013 117.533 75.5161 118.532C75.4271 119.531 75.5781 120.631 75.973 121.832C76.5266 123.525 77.359 124.784 78.4701 125.605L78.4624 125.609Z" fill="#FBF8F0"/>
<path d="M104.323 101.357C103.576 100.854 102.712 100.575 101.733 100.528C100.757 100.482 99.8202 100.927 98.9259 101.872C98.1245 102.717 97.7257 103.72 97.7257 104.878C97.7257 106.04 98.531 107.38 100.138 108.906L107.068 115.475C107.319 115.715 107.331 116.11 107.091 116.362L104.431 119.17C104.191 119.422 103.796 119.434 103.545 119.194L89.9052 106.265C89.6536 106.025 89.6419 105.629 89.882 105.378L92.1081 103.027C92.3481 102.775 92.743 102.763 92.9947 103.003C93.3702 103.36 93.9974 103.131 94.0477 102.612C94.1136 101.95 94.2723 101.288 94.5162 100.633C94.9266 99.5213 95.6157 98.4601 96.5759 97.4453C98.1942 95.7372 99.8357 94.8773 101.5 94.8618C103.169 94.8463 104.582 95.1988 105.744 95.9153C106.905 96.6319 107.916 97.3988 108.779 98.2161L116.487 105.525C116.739 105.765 116.75 106.16 116.51 106.412L113.851 109.22C113.611 109.472 113.216 109.483 112.964 109.243L106.549 103.162C105.813 102.465 105.07 101.861 104.319 101.357H104.323Z" fill="#FBF8F0"/>
<path d="M114.977 78.1531C114.079 78.0641 113.189 78.2306 112.306 78.6528C111.423 79.075 110.812 79.9116 110.475 81.1665C110.173 82.2898 110.297 83.3627 110.847 84.3813C111.396 85.4039 112.744 86.2017 114.881 86.7789L123.545 89.1183C124.184 89.2887 124.559 89.9472 124.389 90.5863L123.677 93.2239C123.506 93.863 122.848 94.2387 122.209 94.0683L98.717 87.7239C98.0782 87.5535 97.7027 86.8951 97.873 86.256L98.4189 84.2303C98.5893 83.5912 99.2474 83.2155 99.8862 83.3859L104.753 84.6989C105.647 84.9391 106.464 84.1179 106.22 83.2271C106.127 82.8862 106.054 82.5338 106.003 82.1697C105.841 80.9961 105.937 79.7373 106.305 78.3855C106.917 76.1158 107.954 74.5781 109.414 73.7725C110.874 72.9669 112.287 72.6066 113.65 72.6841C115.012 72.7654 116.267 72.9591 117.413 73.269L127.115 75.8912C127.753 76.0616 128.129 76.72 127.959 77.3591L127.246 79.9968C127.076 80.6359 126.418 81.0116 125.779 80.8412L117.796 78.6838C116.816 78.4204 115.876 78.2422 114.977 78.1531Z" fill="#FBF8F0"/>
<path d="M31.2327 94.5293C32.9207 92.4533 33.4007 89.7885 32.2354 87.2786C32.1619 87.1159 32.0806 86.961 31.9915 86.8061C31.9218 86.6395 31.8521 86.4807 31.7708 86.318C30.5358 83.8392 28.1587 82.5532 25.4835 82.5765C25.1621 82.5765 24.8911 82.9716 25.015 83.2543C25.3828 84.0987 25.7738 84.9934 26.1687 85.9036C26.281 86.1631 26.4785 86.3568 26.7301 86.4691C27.5664 86.8448 28.271 87.4839 28.7356 88.3709C29.1382 89.2888 29.2001 90.2378 28.9678 91.1247C28.8982 91.3881 28.9253 91.6631 29.0608 91.9149C29.5253 92.7941 29.9783 93.654 30.4081 94.4674C30.5552 94.7424 31.0275 94.7772 31.2288 94.5255L31.2327 94.5293Z" fill="#FBF8F0"/>
<path d="M33.6648 9.96219C31.4309 8.49035 28.7325 8.27732 26.3554 9.68719C26.2044 9.77627 26.0534 9.87698 25.9063 9.97768C25.7475 10.0629 25.5965 10.1481 25.4456 10.2449C23.1033 11.7206 22.0618 14.215 22.3522 16.8759C22.3871 17.1935 22.8013 17.4259 23.0723 17.271C23.8776 16.8217 24.7255 16.3453 25.5888 15.8573C25.8366 15.7178 26.0069 15.5009 26.096 15.2414C26.3863 14.3699 26.9516 13.6069 27.7878 13.0569C28.6628 12.565 29.5997 12.4101 30.5056 12.5495C30.7767 12.5921 31.0477 12.5379 31.2838 12.3791C32.1123 11.8291 32.9215 11.2907 33.688 10.7833C33.9474 10.6129 33.9319 10.1365 33.6648 9.95831V9.96219Z" fill="#FBF8F0"/>
<path d="M41.7748 1.23126L37.2296 6.24712C36.9586 6.54536 36.5869 6.73127 36.1843 6.77001L34.4615 6.93268C33.8459 6.99078 33.4394 6.31296 33.7801 5.79782L37.1561 0.66189C37.2799 0.475974 37.4774 0.355903 37.7019 0.332664L41.1631 0.00343755C41.829 -0.0585345 42.2278 0.731609 41.7748 1.22738V1.23126Z" fill="#FBF8F0"/>
<path d="M82.3173 101.897L77.6056 106.758C77.3269 107.049 76.9475 107.223 76.5448 107.246L74.8181 107.351C74.2026 107.389 73.8193 106.696 74.1716 106.193L77.7179 101.169C77.8457 100.987 78.0509 100.875 78.2715 100.859L81.7443 100.646C82.4141 100.604 82.7819 101.409 82.3173 101.893V101.897Z" fill="#FBF8F0"/>
<path d="M40.3379 102.04L35.1462 97.6984C34.8365 97.4389 34.6351 97.0748 34.5809 96.6759L34.3487 94.9601C34.2674 94.3481 34.9255 93.9143 35.4559 94.2319L40.7212 97.4002C40.9109 97.5164 41.0425 97.7101 41.0696 97.9308L41.5342 101.378C41.6233 102.044 40.8489 102.47 40.334 102.04H40.3379Z" fill="#FBF8F0"/>
<path d="M86.3283 65.8028L86.0147 65.6053C83.2853 63.87 80.4629 62.0767 77.6328 60.295C77.2573 60.0588 77.1102 59.8109 77.0869 59.3887C76.9708 57.0841 76.843 54.7021 76.7346 52.5989L76.5682 49.4267C76.4598 47.3119 75.4067 45.7432 73.529 44.8872C71.69 44.0584 69.7698 44.3101 68.1205 45.6038C66.8584 46.5915 65.5962 47.5791 64.3303 48.5668L63.9547 48.8612C62.7236 49.8218 61.4963 50.7823 60.2651 51.7468C59.909 52.0256 59.6651 52.0334 59.4095 51.9598C58.1048 51.5763 56.7769 51.1774 55.4954 50.7939L53.8616 50.302C53.4048 50.1665 52.9518 50.027 52.495 49.8837C51.4497 49.5622 50.3695 49.2291 49.2816 48.9425C47.2955 48.4158 45.4604 48.9851 44.1054 50.5422C42.7465 52.107 42.4406 54.0397 43.2498 55.988C44.45 58.8774 45.7005 61.8559 46.9626 64.8384C47.1716 65.338 47.0981 65.6053 46.9122 65.8764C46.2154 66.8834 45.5146 67.8905 44.7984 68.9246L44.6474 69.1415C43.8886 70.2338 43.1065 71.3609 42.3361 72.4764C42.2316 72.6313 42.1193 72.7863 42.0031 72.9451C41.6082 73.4912 41.2017 74.0567 40.9075 74.7268C40.1874 76.3496 40.35 78.1933 41.3372 79.6613C42.3361 81.1447 44.0047 81.9968 45.8011 81.9387C49.4287 81.8225 52.9905 81.6947 56.3007 81.5747C56.6956 81.5592 56.9356 81.6676 57.1795 81.9736C58.9875 84.2162 60.8343 86.4937 62.619 88.6937L63.7224 90.0532C64.2954 90.7581 64.9613 91.2888 65.6969 91.6257C66.3357 91.9162 67.0132 92.0596 67.7217 92.0557C68.105 92.0557 68.496 92.0092 68.8948 91.9201C70.908 91.4786 72.3056 90.0958 72.8321 88.0236C73.076 87.0631 73.3199 86.1064 73.5638 85.1497L73.5716 85.1187C74.0865 83.0969 74.6208 81.0053 75.1318 78.9331C75.2557 78.4257 75.4919 78.1856 76.0184 78.0113C78.7052 77.1437 81.4927 76.218 83.9512 75.4007L85.0971 75.0211C86.4018 74.5873 87.5014 73.7042 87.9698 72.7088C89.2087 69.9975 88.5428 67.2204 86.3167 65.8067L86.3283 65.8028ZM50.9541 63.2697C50.2882 61.6739 49.6146 60.0626 48.9603 58.5056L48.8635 58.2732C48.3099 56.9563 47.7562 55.6394 47.2065 54.3186C47.0671 53.9816 47.1058 53.6369 47.311 53.3658C47.493 53.1295 47.7717 53.0172 48.0698 53.0559C48.2441 53.0792 48.457 53.145 48.6854 53.2186L48.91 53.2883C49.9475 53.5982 50.9851 53.908 52.0227 54.2179L52.0652 54.2295C54.0862 54.8337 56.1729 55.4612 58.2365 56.0654C59.8664 56.5457 61.4498 56.2397 62.8087 55.1823C65.3872 53.1837 67.9463 51.1774 70.7841 48.9541C71.2022 48.6288 71.4694 48.6482 71.7713 48.7837C72.0694 48.9193 72.2591 49.1091 72.2862 49.632C72.3559 50.9954 72.4295 52.3549 72.4992 53.7182C72.6076 55.7982 72.7082 57.6728 72.8012 59.5552C72.8941 61.4454 73.7536 62.9172 75.3564 63.9243C77.4509 65.245 79.5802 66.5891 81.636 67.8905L83.8737 69.3081C84.3615 69.6141 84.4777 70.0556 84.2144 70.6211C84.1718 70.7141 84.0092 70.8613 83.6802 70.9697C80.5907 71.9845 77.4702 73.0148 74.5356 73.9831C72.7121 74.5873 71.4926 75.8926 71.0125 77.7556C70.908 78.1585 70.8073 78.5613 70.7067 78.9602L69.8007 82.5314C69.4174 84.0381 69.0342 85.5447 68.6548 87.0514C68.5541 87.4581 68.376 87.6324 67.9811 87.7215C67.5978 87.8067 67.3655 87.7215 67.0984 87.3884L65.5304 85.4479C63.6566 83.1317 62.0925 81.199 60.4626 79.1965C59.9283 78.538 59.2973 78.0384 58.5849 77.7169C57.9229 77.4148 57.1912 77.2637 56.4091 77.2676C56.3549 77.2676 56.3007 77.2676 56.2465 77.2676C52.797 77.3799 49.2894 77.5039 45.8127 77.6356C45.2514 77.6549 45.05 77.4923 44.8836 77.2018C44.7132 76.8958 44.6668 76.6208 44.9726 76.1792C46.6258 73.8049 48.546 71.0433 50.4547 68.2662C51.5078 66.7324 51.682 65.001 50.9541 63.2581V63.2697Z" fill="#FBF8F0"/>
<path d="M55.7316 62.0697C55.3987 61.3764 57.288 59.2964 59.4212 60.2531C61.5544 61.2098 61.2292 63.9559 60.5711 64.2426C60.0019 64.4866 60.393 62.3524 58.8521 61.663C57.3112 60.9697 56.0104 62.6584 55.7316 62.0697Z" fill="#FBF8F0"/>
<path d="M67.5441 67.3724C67.2112 66.6791 69.1005 64.5992 71.2337 65.5559C73.3669 66.5126 73.0417 69.2587 72.3836 69.5453C71.8144 69.7893 72.2055 67.6552 70.6646 66.9657C69.1237 66.2724 67.8229 67.9611 67.5441 67.3724Z" fill="#FBF8F0"/>
<path d="M66.2082 72.7287C66.8392 71.985 65.91 71.2762 65.3138 71.9153C63.6026 73.7473 59.1891 71.5745 59.3285 69.266C59.3943 68.1428 58.2986 68.2009 58.1554 69.084C57.5785 72.6396 63.6878 75.6956 66.2082 72.7326V72.7287Z" fill="#FBF8F0"/>
</svg>
