<svg width="342" height="330" viewBox="0 0 342 330" fill="none" xmlns="http://www.w3.org/2000/svg">
<path d="M250.19 91.8167L248.318 92.0301C231.974 93.8241 215.077 95.6831 198.186 97.6126C195.945 97.8692 194.578 97.3552 193.155 95.7584C185.434 87.0084 177.422 77.9887 170.365 70.011L159.711 57.9878C152.618 49.9641 143.48 47.0984 133.3 49.669C123.36 52.2239 116.499 59.3126 114 69.664C112.08 77.5763 110.161 85.4886 108.226 93.4132L107.656 95.7694C105.775 103.476 103.909 111.171 102.039 118.893C101.498 121.126 100.55 121.931 99.3002 122.45C92.8923 125.073 86.3431 127.707 80.0278 130.256L71.9667 133.493C69.7189 134.406 67.4743 135.292 65.2021 136.174C60.0233 138.218 54.669 140.328 49.4302 142.645C39.8552 146.862 34.3343 154.937 33.8378 165.397C33.3502 175.9 38.2187 184.518 47.58 189.659C61.4643 197.284 75.8297 205.102 90.2537 212.898C92.6607 214.211 93.2093 215.502 93.3226 217.165C93.7169 223.36 94.0958 229.568 94.4984 235.932L94.5797 237.269C94.9956 243.999 95.4286 250.94 95.8713 257.798C95.9427 258.742 95.9832 259.712 96.0204 260.708C96.1666 264.122 96.3275 267.649 97.2653 271.234C99.5067 279.94 105.962 286.719 114.52 289.395C123.174 292.096 132.508 290.173 139.485 284.244C153.578 272.274 167.371 260.468 180.186 249.491C181.711 248.177 183.01 247.844 184.946 248.281C199.215 251.418 213.749 254.57 227.792 257.612L236.471 259.491C240.975 260.462 245.301 260.449 249.294 259.448C252.755 258.571 255.907 256.988 258.718 254.725C260.246 253.509 261.658 252.085 262.967 250.467C269.6 242.332 270.815 232.427 266.387 222.558C264.334 217.983 262.293 213.424 260.252 208.865L260.185 208.717C255.869 199.084 251.411 189.113 246.921 179.293C245.817 176.892 246.002 175.193 247.551 172.832C255.527 160.875 263.722 148.368 270.946 137.335L274.318 132.197C278.152 126.341 279.753 119.358 278.485 113.934C274.883 99.2752 263.482 90.3997 250.156 91.8689L250.19 91.8167ZM101.222 194.027C93.5417 189.826 85.7818 185.588 78.2699 181.503L77.1521 180.89C70.7977 177.436 64.4433 173.982 58.0922 170.5C56.4753 169.609 55.5439 168.123 55.5078 166.399C55.4888 164.887 56.2461 163.558 57.5562 162.765C58.3238 162.304 59.3799 161.889 60.5221 161.456L61.6367 161.019C66.748 158.953 71.8594 156.887 76.9708 154.821L77.1771 154.732C87.135 150.711 97.4285 146.573 107.556 142.417C115.565 139.146 120.913 132.911 122.998 124.416C126.98 108.328 130.861 92.2698 135.169 74.4694C135.811 71.8555 136.936 71.0845 138.567 70.6628C140.182 70.2534 141.536 70.4024 143.291 72.3854C147.863 77.5588 152.438 82.7046 157.01 87.8779C163.993 95.7637 170.299 102.862 176.598 110.015C182.922 117.199 190.983 120.296 200.543 119.195C213.051 117.776 225.771 116.338 238.064 114.964L251.448 113.474C254.356 113.137 256.21 114.515 256.941 117.588C257.064 118.091 256.88 119.189 255.91 120.662C246.793 134.48 237.6 148.457 228.954 161.599C223.589 169.775 222.84 178.809 226.794 187.703C227.646 189.629 228.514 191.542 229.369 193.44L237.006 210.444C240.224 217.622 243.442 224.799 246.676 231.965C247.555 233.893 247.394 235.148 246.101 236.753C244.842 238.306 243.648 238.706 241.534 238.236L229.172 235.533C214.409 232.313 202.087 229.628 189.284 226.876C185.08 225.966 180.991 225.991 177.14 226.98C173.549 227.885 170.157 229.609 167.053 232.105C166.836 232.277 166.62 232.449 166.404 232.621C153.009 244.01 139.42 255.629 125.978 267.181C123.801 269.038 122.486 269.033 120.908 268.412C119.265 267.742 118.214 266.801 118.042 264.084C117.153 249.444 116.108 232.425 114.969 215.381C114.335 205.971 109.576 198.568 101.185 193.981L101.222 194.027Z" fill="#FFFDF9"/>
<path d="M116.481 174.119C112.97 172.432 113.949 158.208 125.465 155.225C136.981 152.242 144.334 164.14 142.613 167.362C141.114 170.133 135.95 160.448 127.637 162.609C119.312 164.755 119.446 175.564 116.481 174.119Z" fill="#FFFDF9"/>
<path d="M180.26 157.623C176.75 155.936 177.729 141.712 189.244 138.729C200.76 135.746 208.113 147.644 206.393 150.866C204.893 153.637 199.729 143.952 191.417 146.113C183.091 148.259 183.226 159.068 180.26 157.623Z" fill="#FFFDF9"/>
<path d="M191.809 183.056C191.982 178.111 186.046 178.255 185.683 182.675C184.633 195.353 160.198 200.758 153.483 191.182C150.207 186.529 146.023 190.235 148.234 194.184C157.134 210.083 191.108 202.791 191.821 183.071L191.809 183.056Z" fill="#FFFDF9"/>
</svg>
