<svg width="833" height="820" viewBox="0 0 833 820" fill="none" xmlns="http://www.w3.org/2000/svg">
<path d="M770.767 349.673L765.448 346.765C719.141 321.19 671.259 294.761 623.262 268.528C616.893 265.049 614.25 261.164 613.469 254.328C609.38 217.006 605.028 178.436 601.257 144.378L595.521 93.0114C591.739 58.7643 573.019 34.2917 541.484 22.1839C510.607 10.4795 479.427 16.4057 453.67 38.9964C433.957 56.2465 414.244 73.4966 394.468 90.7505L388.602 95.8912C369.371 112.671 350.202 129.448 330.974 146.291C325.411 151.161 321.427 151.52 317.176 150.569C295.465 145.589 273.358 140.379 252.027 135.377L224.827 128.949C217.224 127.184 209.68 125.353 202.069 123.462C184.66 119.24 166.67 114.863 148.598 111.248C115.601 104.591 86.1159 115.595 65.4233 142.182C44.6747 168.899 41.5057 200.585 56.595 231.457C78.976 277.242 102.265 324.426 125.748 371.662C129.643 379.578 128.693 383.99 125.91 388.571C115.464 405.595 104.955 422.623 94.2177 440.106L91.9532 443.774C80.5746 462.241 68.8489 481.297 57.3023 500.153C55.7391 502.769 54.0491 505.393 52.2996 508.084C46.3568 517.332 40.2425 526.906 36.0645 538.072C25.8232 565.121 30.2344 594.913 47.7816 617.812C65.5335 640.953 93.6449 653.198 122.982 650.536C182.227 645.178 240.384 639.695 294.431 634.579C300.878 633.949 304.908 635.481 309.19 640.218C340.902 674.916 373.28 710.142 404.572 744.17L423.917 765.197C433.961 776.099 445.361 784.081 457.716 788.851C468.444 792.958 479.666 794.638 491.255 793.898C497.526 793.531 503.88 792.402 510.32 790.574C542.84 781.476 564.395 757.679 571.043 723.517C574.121 707.681 577.204 691.908 580.286 676.135L580.383 675.624C586.888 642.291 593.644 607.807 600.038 573.659C601.583 565.299 605.22 561.172 613.669 557.838C656.807 541.175 701.537 523.473 740.986 507.846L759.376 500.584C780.312 492.29 797.464 476.894 804.183 460.278C821.88 415.053 808.347 370.581 770.58 349.747L770.767 349.673ZM189.568 342.364C177.157 317.081 164.605 291.553 152.421 266.888L150.617 263.206C140.308 242.345 129.999 221.484 119.749 200.556C117.149 195.216 117.455 189.58 120.555 184.98C123.308 180.968 127.762 178.877 132.677 179.221C135.549 179.432 139.096 180.297 142.903 181.274L146.643 182.192C163.914 186.233 181.185 190.273 198.456 194.314L199.164 194.462C232.805 202.343 267.544 210.539 301.881 218.38C329.006 224.622 354.624 218.137 375.854 199.662C416.145 164.732 456.112 129.695 500.433 90.8685C506.966 85.1839 511.355 85.243 516.425 87.1561C521.431 89.0729 524.715 91.9742 525.655 100.442C528.09 122.52 530.585 144.533 533.019 166.611C536.768 200.292 540.195 230.646 543.503 261.133C546.818 291.746 562.279 314.831 589.46 329.655C624.985 349.105 661.101 368.899 695.974 388.072L733.934 408.958C742.206 413.461 744.526 420.522 740.755 429.959C740.147 431.51 737.626 434.056 732.344 436.133C682.758 455.571 632.679 475.291 585.582 493.826C556.32 505.385 537.606 527.753 531.52 558.474C530.192 565.117 528.928 571.756 527.659 578.332L516.227 637.205C511.387 662.045 506.546 686.885 501.769 711.721C500.508 718.423 497.76 721.425 491.383 723.249C485.193 725 481.311 723.838 476.624 718.683L449.126 688.663C416.267 652.834 388.84 622.936 360.27 591.969C350.903 581.785 340.103 574.272 328.142 569.732C317.023 565.458 304.907 563.704 292.115 564.515C291.228 564.567 290.341 564.619 289.454 564.671C233.12 569.795 175.846 575.163 119.086 580.628C109.919 581.479 106.471 579.03 103.471 574.47C100.393 569.663 99.3721 565.241 103.957 557.776C128.751 517.629 157.549 470.935 186.141 424C201.915 398.079 203.121 369.79 189.557 342.176L189.568 342.364Z" fill="#31474A"/>
<path d="M266.596 318.291C260.49 307.348 289.428 271.757 325.24 285.256C361.052 298.755 358.339 343.672 347.842 348.957C338.762 353.465 343.133 318.425 317.267 308.701C291.397 298.913 271.716 327.588 266.596 318.291Z" fill="#31474A"/>
<path d="M464.9 393.121C458.794 382.177 487.731 346.586 523.544 360.085C559.356 373.584 556.642 418.501 546.146 423.786C537.065 428.294 541.437 393.255 515.57 383.53C489.7 373.742 470.02 402.417 464.9 393.121Z" fill="#31474A"/>
<path d="M448.133 481.409C457.752 468.726 441.876 458.101 432.728 469.052C406.468 500.447 332.191 469.374 332.279 431.745C332.289 413.437 314.417 415.429 312.912 429.91C306.85 488.216 409.712 532.011 448.137 481.472L448.133 481.409Z" fill="#31474A"/>
</svg>
