<svg width="20" height="20" viewBox="0 0 20 20" fill="none" xmlns="http://www.w3.org/2000/svg">
<rect width="20" height="20" rx="10" fill="#344B4E"/>
<g clip-path="url(#clip0_1_16325)">
<path d="M9.45963 5.43336C9.51465 5.33894 9.59347 5.2606 9.68822 5.20615C9.78297 5.1517 9.89034 5.12305 9.99963 5.12305C10.1089 5.12305 10.2163 5.1517 10.311 5.20615C10.4058 5.2606 10.4846 5.33894 10.5396 5.43336L11.9371 7.83236L14.6511 8.42036C14.7579 8.44356 14.8567 8.49434 14.9377 8.56763C15.0187 8.64092 15.0791 8.73417 15.1129 8.83808C15.1466 8.94198 15.1525 9.05292 15.13 9.15982C15.1075 9.26673 15.0574 9.36587 14.9846 9.44736L13.1346 11.5179L13.4146 14.2804C13.4257 14.3891 13.408 14.4989 13.3633 14.5987C13.3187 14.6985 13.2486 14.7849 13.1602 14.8491C13.0717 14.9134 12.968 14.9533 12.8592 14.965C12.7505 14.9766 12.6407 14.9595 12.5406 14.9154L9.99963 13.7954L7.45863 14.9154C7.35859 14.9595 7.24872 14.9766 7.14 14.965C7.03129 14.9533 6.92752 14.9134 6.83906 14.8491C6.75061 14.7849 6.68056 14.6985 6.63591 14.5987C6.59126 14.4989 6.57358 14.3891 6.58463 14.2804L6.86463 11.5179L5.01463 9.44786C4.94174 9.36638 4.8915 9.2672 4.86893 9.16022C4.84636 9.05325 4.85225 8.94223 4.886 8.83824C4.91975 8.73425 4.98019 8.64094 5.06128 8.56761C5.14237 8.49429 5.24128 8.44351 5.34813 8.42036L8.06213 7.83236L9.45963 5.43336Z" fill="#F8F1E1"/>
</g>
<defs>
<clipPath id="clip0_1_16325">
<rect width="12" height="12" fill="white" transform="translate(4 4)"/>
</clipPath>
</defs>
</svg>
