<svg width="16" height="16" viewBox="0 0 16 16" fill="none" xmlns="http://www.w3.org/2000/svg">
<g id=" Account">
<path id="Vector" d="M7.99935 3.16602C8.57398 3.16602 9.12508 3.39429 9.53141 3.80062C9.93774 4.20695 10.166 4.75805 10.166 5.33268C10.166 5.90732 9.93774 6.45842 9.53141 6.86475C9.12508 7.27108 8.57398 7.49935 7.99935 7.49935C7.42471 7.49935 6.87361 7.27108 6.46728 6.86475C6.06096 6.45842 5.83268 5.90732 5.83268 5.33268C5.83268 4.75805 6.06096 4.20695 6.46728 3.80062C6.87361 3.39429 7.42471 3.16602 7.99935 3.16602ZM7.99935 9.83268C9.41195 9.83268 10.6655 10.1198 11.5474 10.5607C12.4591 11.0166 12.8327 11.554 12.8327 11.9993V12.8327H3.16602V11.9993C3.16602 11.554 3.53962 11.0166 4.45129 10.5607C5.33318 10.1198 6.58674 9.83268 7.99935 9.83268Z" stroke="#FBF8F0"/>
</g>
</svg>
