<svg width="42" height="42" viewBox="0 0 42 42" fill="none" xmlns="http://www.w3.org/2000/svg">
<path d="M40.0291 18.9097L39.7554 18.7397C37.3733 17.2466 34.9101 15.7035 32.4401 14.1704C32.1124 13.9671 31.984 13.7538 31.9637 13.3905C31.8623 11.4074 31.7508 9.3577 31.6562 7.54795L31.5109 4.81833C31.4163 2.99858 30.4973 1.64877 28.8585 0.912201C27.2535 0.198966 25.5776 0.415605 24.1382 1.52878C23.0367 2.37867 21.9352 3.22855 20.8303 4.07843L20.5025 4.33173C19.428 5.15828 18.3569 5.98483 17.2825 6.81472C16.9716 7.05469 16.7587 7.06135 16.5357 6.99803C15.397 6.66807 14.2381 6.32479 13.1197 5.99483L11.6938 5.57156C11.2951 5.45491 10.8997 5.33492 10.501 5.21161C9.58873 4.93498 8.64603 4.64835 7.69656 4.40172C5.96319 3.94845 4.3616 4.43838 3.17899 5.77819C1.99301 7.12468 1.72607 8.78778 2.43226 10.4642C3.47971 12.9505 4.57109 15.5135 5.67261 18.0798C5.85507 18.5098 5.79087 18.7397 5.62868 18.973C5.02048 19.8396 4.40891 20.7061 3.78381 21.596L3.65204 21.7827C2.98978 22.7225 2.30724 23.6924 1.63484 24.6523C1.54361 24.7856 1.44563 24.9189 1.34426 25.0555C0.999613 25.5255 0.644832 26.0121 0.388037 26.5887C-0.240435 27.9851 -0.0985241 29.5716 0.763091 30.8347C1.63484 32.1112 3.09114 32.8445 4.65895 32.7945C7.82496 32.6945 10.9335 32.5845 13.8225 32.4812C14.1671 32.4678 14.3766 32.5612 14.5895 32.8245C16.1674 34.7542 17.7791 36.7139 19.3368 38.607L20.2998 39.7768C20.7999 40.3834 21.381 40.84 22.023 41.13C22.5805 41.3799 23.1718 41.5033 23.7902 41.4999C24.1247 41.4999 24.466 41.4599 24.814 41.3833C26.571 41.0033 27.7908 39.8135 28.2503 38.0304C28.4632 37.2039 28.676 36.3806 28.8889 35.5574L28.8957 35.5308C29.3451 33.791 29.8113 31.9912 30.2574 30.2082C30.3655 29.7716 30.5716 29.5649 31.0311 29.4149C33.3761 28.6684 35.8089 27.8718 37.9545 27.1686L38.9546 26.842C40.0933 26.4687 41.0529 25.7088 41.4617 24.8522C42.543 22.5192 41.9618 20.1295 40.019 18.913L40.0291 18.9097ZM9.15624 16.73C8.57507 15.3569 7.98714 13.9704 7.41611 12.6306L7.33164 12.4306C6.84846 11.2974 6.36528 10.1643 5.88548 9.02775C5.76384 8.73779 5.79763 8.44116 5.97671 8.20786C6.13551 8.00456 6.3788 7.9079 6.63897 7.94123C6.79102 7.96123 6.97686 8.01789 7.17621 8.08121L7.37219 8.14121C8.27773 8.40784 9.18327 8.67446 10.0888 8.94109L10.126 8.95109C11.8898 9.47102 13.711 10.0109 15.5119 10.5309C16.9344 10.9442 18.3164 10.6809 19.5024 9.77098C21.7527 8.05122 23.9862 6.32479 26.4629 4.41172C26.8278 4.13176 27.0609 4.14842 27.3245 4.26507C27.5847 4.38172 27.7502 4.54503 27.7739 4.99497C27.8347 6.16814 27.8989 7.33798 27.9597 8.51115C28.0543 10.3009 28.1422 11.914 28.2233 13.5338C28.3044 15.1602 29.0545 16.4267 30.4533 17.2933C32.2813 18.4298 34.1397 19.5863 35.9339 20.7061L37.8869 21.926C38.3126 22.1893 38.414 22.5692 38.1842 23.0558C38.1471 23.1358 38.0051 23.2624 37.7179 23.3558C35.0216 24.229 32.2982 25.1155 29.737 25.9487C28.1456 26.4687 27.0812 27.5919 26.6622 29.195C26.571 29.5416 26.4832 29.8882 26.3953 30.2315L25.6046 33.3044C25.2701 34.6009 24.9356 35.8974 24.6045 37.1939C24.5166 37.5438 24.3612 37.6938 24.0166 37.7704C23.6821 37.8438 23.4793 37.7704 23.2462 37.4838L21.8777 35.8141C20.2424 33.821 18.8773 32.1579 17.4548 30.4348C16.9885 29.8682 16.4377 29.4383 15.816 29.1616C15.2382 28.9017 14.5996 28.7717 13.9171 28.775C13.8698 28.775 13.8225 28.775 13.7752 28.775C10.7646 28.8717 7.70332 28.9783 4.66908 29.0916C4.17914 29.1083 4.00344 28.9683 3.85815 28.7184C3.70948 28.4551 3.66893 28.2184 3.93586 27.8385C5.37865 25.7954 7.05457 23.4191 8.72036 21.0294C9.63942 19.7096 9.79147 18.2198 9.15624 16.72V16.73Z" fill="#344B4E"/>
<path d="M13.3264 15.6978C13.0358 15.1012 14.6847 13.3114 16.5465 14.1346C18.4082 14.9579 18.1244 17.3209 17.55 17.5675C17.0533 17.7775 17.3946 15.9411 16.0498 15.3478C14.705 14.7512 13.5697 16.2044 13.3264 15.6978Z" fill="#344B4E"/>
<path d="M23.635 20.2603C23.3444 19.6637 24.9933 17.8739 26.8551 18.6971C28.7168 19.5204 28.433 21.8834 27.8586 22.13C27.3619 22.34 27.7032 20.5036 26.3584 19.9103C25.0136 19.3137 23.8783 20.7669 23.635 20.2603Z" fill="#344B4E"/>
<path d="M22.4696 24.87C23.0204 24.2301 22.2094 23.6202 21.6891 24.1701C20.1956 25.7465 16.3437 23.8768 16.4653 21.8904C16.5228 20.9239 15.5666 20.9739 15.4415 21.7338C14.9381 24.7933 20.27 27.423 22.4696 24.8733V24.87Z" fill="#344B4E"/>
</svg>
