<svg width="11" height="12" viewBox="0 0 11 12" fill="none" xmlns="http://www.w3.org/2000/svg">
<g id="Group">
<path id="Vector" d="M5.00466 1.81375C5.0551 1.7272 5.12735 1.65539 5.2142 1.60548C5.30106 1.55556 5.39948 1.5293 5.49966 1.5293C5.59983 1.5293 5.69826 1.55556 5.78511 1.60548C5.87197 1.65539 5.94422 1.7272 5.99466 1.81375L7.2757 4.01284L9.76353 4.55184C9.86139 4.5731 9.95197 4.61965 10.0262 4.68683C10.1005 4.75402 10.1559 4.83949 10.1868 4.93474C10.2177 5.02999 10.2231 5.13168 10.2025 5.22968C10.1819 5.32767 10.1359 5.41855 10.0692 5.49325L8.37341 7.39121L8.63007 9.92351C8.6402 10.0232 8.62399 10.1238 8.58306 10.2153C8.54214 10.3068 8.47793 10.386 8.39684 10.4449C8.31576 10.5038 8.22064 10.5404 8.12098 10.5511C8.02132 10.5617 7.92061 10.546 7.82891 10.5056L5.49966 9.47892L3.17041 10.5056C3.0787 10.546 2.97799 10.5617 2.87834 10.5511C2.77868 10.5404 2.68356 10.5038 2.60247 10.4449C2.52139 10.386 2.45718 10.3068 2.41625 10.2153C2.37532 10.1238 2.35912 10.0232 2.36924 9.92351L2.62591 7.39121L0.930074 5.49371C0.863262 5.41902 0.817212 5.3281 0.796522 5.23004C0.775832 5.13198 0.781226 5.03021 0.812165 4.93489C0.843104 4.83957 0.898506 4.75403 0.972839 4.68682C1.04717 4.6196 1.13784 4.57306 1.23578 4.55184L3.72362 4.01284L5.00466 1.81375Z" fill="#F8F1E1"/>
</g>
</svg>
