<svg width="40" height="40" viewBox="0 0 40 40" fill="none" xmlns="http://www.w3.org/2000/svg">
<mask id="path-2-inside-1_1_6820" fill="white">
<path d="M19.8118 6.32524C21.0697 6.32524 22.1518 5.64682 22.6254 5.1476C22.8225 4.93938 23.0051 4.88477 23.2253 4.88477C23.4455 4.88477 24.0573 5.2995 24.0573 5.2995L34.9727 10.1893C34.9727 10.1893 33.0628 14.0064 32.8683 14.4006C32.6703 14.7957 32.4066 15.4537 31.8792 15.3205C31.3544 15.1908 28.6544 14.6643 28.3907 14.6643C28.127 14.6643 27.603 14.7291 27.865 15.7173C28.127 16.7038 29.774 22.9556 29.9703 24.6666C30.1691 26.3784 31.6173 34.2088 30.0368 34.7362C28.4573 35.2619 27.0091 36.1827 19.636 29.9318C18.059 31.5114 12.7281 36.6426 8.9767 34.3403C7.08565 33.1788 7.71629 28.7371 8.51674 24.2057C9.30183 19.7452 10.5554 16.505 11.1485 14.8597C8.44847 15.2574 8.64816 15.1908 8.05507 15.3197C7.46199 15.4519 6.86975 15.1234 6.67177 14.5969C6.4755 14.0712 5.02734 9.72759 5.02734 9.72759C5.02734 9.72759 14.8342 5.51711 15.4904 5.31827C16.1509 5.12115 16.9394 5.25342 17.2688 5.58196C17.5965 5.91136 19.4824 6.32439 19.8101 6.32439"/>
</mask>
<path d="M19.8118 6.32524C21.0697 6.32524 22.1518 5.64682 22.6254 5.1476C22.8225 4.93938 23.0051 4.88477 23.2253 4.88477C23.4455 4.88477 24.0573 5.2995 24.0573 5.2995L34.9727 10.1893C34.9727 10.1893 33.0628 14.0064 32.8683 14.4006C32.6703 14.7957 32.4066 15.4537 31.8792 15.3205C31.3544 15.1908 28.6544 14.6643 28.3907 14.6643C28.127 14.6643 27.603 14.7291 27.865 15.7173C28.127 16.7038 29.774 22.9556 29.9703 24.6666C30.1691 26.3784 31.6173 34.2088 30.0368 34.7362C28.4573 35.2619 27.0091 36.1827 19.636 29.9318C18.059 31.5114 12.7281 36.6426 8.9767 34.3403C7.08565 33.1788 7.71629 28.7371 8.51674 24.2057C9.30183 19.7452 10.5554 16.505 11.1485 14.8597C8.44847 15.2574 8.64816 15.1908 8.05507 15.3197C7.46199 15.4519 6.86975 15.1234 6.67177 14.5969C6.4755 14.0712 5.02734 9.72759 5.02734 9.72759C5.02734 9.72759 14.8342 5.51711 15.4904 5.31827C16.1509 5.12115 16.9394 5.25342 17.2688 5.58196C17.5965 5.91136 19.4824 6.32439 19.8101 6.32439" fill="#FFFDF9"/>
<path d="M22.6254 5.1476L23.1874 5.68076L23.1879 5.68017L22.6254 5.1476ZM24.0573 5.2995L23.6227 5.94072L23.6788 5.97875L23.7406 6.00645L24.0573 5.2995ZM34.9727 10.1893L35.6654 10.5359L36.0272 9.81284L35.2894 9.48231L34.9727 10.1893ZM32.8683 14.4006L33.5609 14.7476L33.5629 14.7434L32.8683 14.4006ZM31.8792 15.3205L32.0688 14.5694L32.0651 14.5685L31.8792 15.3205ZM27.865 15.7173L27.1162 15.9159L27.1163 15.9162L27.865 15.7173ZM29.9703 24.6666L29.2007 24.7548L29.2008 24.7559L29.9703 24.6666ZM30.0368 34.7362L30.2814 35.4712L30.282 35.471L30.0368 34.7362ZM19.636 29.9318L20.137 29.3409L19.5923 28.8792L19.0878 29.3845L19.636 29.9318ZM8.9767 34.3403L8.57129 35.0004L8.5715 35.0005L8.9767 34.3403ZM8.51674 24.2057L9.27958 24.3405L9.27966 24.34L8.51674 24.2057ZM11.1485 14.8597L11.8773 15.1224L12.3162 13.9047L11.0356 14.0933L11.1485 14.8597ZM8.05507 15.3197L7.8906 14.5627L7.88645 14.5636L8.05507 15.3197ZM6.67177 14.5969L5.94606 14.8678L5.94669 14.8695L6.67177 14.5969ZM5.02734 9.72759L4.72173 9.01578L4.06716 9.29682L4.29246 9.9726L5.02734 9.72759ZM15.4904 5.31827L15.2689 4.57597L15.2658 4.57691L15.4904 5.31827ZM17.2688 5.58196L17.818 5.03562L17.8159 5.03349L17.2688 5.58196ZM19.8118 7.09989C21.3238 7.09989 22.5988 6.30111 23.1874 5.68076L22.0634 4.61444C21.7047 4.99253 20.8156 5.55059 19.8118 5.55059V7.09989ZM23.1879 5.68017C23.2078 5.65915 23.2189 5.65098 23.2208 5.64958C23.222 5.64871 23.2173 5.6521 23.2079 5.65593C23.2036 5.65766 23.1996 5.65897 23.1963 5.65988C23.1931 5.66078 23.1913 5.66106 23.1915 5.66103C23.1923 5.66091 23.2019 5.65941 23.2253 5.65941V4.11012C23.0499 4.11012 22.8432 4.13196 22.6255 4.22027C22.4063 4.30917 22.2224 4.44654 22.0628 4.61503L23.1879 5.68017ZM23.2253 5.65941C23.1805 5.65941 23.1476 5.65438 23.1313 5.65138C23.1139 5.64819 23.1035 5.64512 23.1017 5.64456C23.0992 5.64382 23.1099 5.64702 23.1361 5.65856C23.1886 5.6817 23.259 5.71846 23.338 5.76383C23.4144 5.80774 23.4868 5.85273 23.5409 5.88732C23.5677 5.9044 23.5891 5.91847 23.6035 5.92796C23.6107 5.93269 23.616 5.93626 23.6193 5.93846C23.6209 5.93956 23.6221 5.94031 23.6226 5.9407C23.6229 5.94089 23.6231 5.94099 23.6231 5.941C23.6231 5.941 23.6231 5.94098 23.623 5.94093C23.623 5.94091 23.6229 5.94088 23.6229 5.94085C23.6228 5.94083 23.6228 5.9408 23.6228 5.94079C23.6227 5.94076 23.6227 5.94072 24.0573 5.2995C24.492 4.65827 24.4919 4.65824 24.4918 4.6582C24.4918 4.65818 24.4918 4.65814 24.4917 4.65811C24.4916 4.65805 24.4915 4.65799 24.4914 4.65791C24.4912 4.65777 24.491 4.6576 24.4907 4.6574C24.4901 4.65701 24.4893 4.65651 24.4885 4.65592C24.4867 4.65474 24.4844 4.65316 24.4815 4.65123C24.4757 4.64735 24.4677 4.64201 24.4577 4.6354C24.4377 4.62221 24.4097 4.60387 24.3756 4.58208C24.3081 4.5389 24.2138 4.4802 24.1097 4.42043C24.0082 4.36212 23.8844 4.2952 23.7603 4.24058C23.671 4.20127 23.4587 4.11012 23.2253 4.11012V5.65941ZM23.7406 6.00645L34.656 10.8962L35.2894 9.48231L24.374 4.59255L23.7406 6.00645ZM34.9727 10.1893C34.2799 9.84265 34.2799 9.84266 34.2799 9.84269C34.2799 9.84272 34.2798 9.84276 34.2798 9.84282C34.2798 9.84294 34.2797 9.84311 34.2795 9.84334C34.2793 9.84381 34.279 9.8445 34.2785 9.84542C34.2776 9.84725 34.2762 9.85 34.2744 9.85361C34.2708 9.86085 34.2654 9.87159 34.2584 9.88562C34.2444 9.91368 34.2237 9.95488 34.1974 10.0075C34.1448 10.1126 34.0695 10.2633 33.9784 10.4453C33.7963 10.8093 33.5515 11.2988 33.3006 11.8007C32.7996 12.8026 32.2721 13.8583 32.1736 14.0578L33.5629 14.7434C33.6591 14.5487 34.1837 13.4987 34.6863 12.4935C34.9372 11.9918 35.182 11.5024 35.364 11.1384C35.4551 10.9564 35.5304 10.8058 35.583 10.7006C35.6093 10.6481 35.6299 10.6069 35.644 10.5788C35.651 10.5648 35.6563 10.5541 35.66 10.5468C35.6618 10.5432 35.6631 10.5405 35.6641 10.5386C35.6645 10.5377 35.6649 10.537 35.6651 10.5366C35.6652 10.5363 35.6653 10.5362 35.6654 10.5361C35.6654 10.536 35.6654 10.536 35.6654 10.5359C35.6654 10.5359 35.6654 10.5359 34.9727 10.1893ZM32.1757 14.0536C32.1108 14.1831 32.077 14.2589 32.0193 14.3681C31.9679 14.4654 31.9258 14.5327 31.8906 14.577C31.8539 14.6233 31.8515 14.6102 31.8922 14.5907C31.9514 14.5621 32.022 14.5576 32.0688 14.5694L31.6896 16.0716C32.3807 16.2461 32.8605 15.847 33.104 15.5403C33.3257 15.261 33.4911 14.8868 33.5608 14.7476L32.1757 14.0536ZM32.0651 14.5685C31.7789 14.4978 30.9515 14.3299 30.1825 14.1829C29.7933 14.1085 29.4096 14.0377 29.1047 13.9852C28.9527 13.959 28.8163 13.9367 28.707 13.9207C28.6218 13.9082 28.4912 13.8896 28.3907 13.8896V15.4389C28.3561 15.4389 28.3675 15.4368 28.4826 15.4537C28.5734 15.4669 28.6953 15.4868 28.8417 15.512C29.1337 15.5623 29.5072 15.6312 29.8916 15.7046C30.6698 15.8534 31.4548 16.0136 31.6934 16.0725L32.0651 14.5685ZM28.3907 13.8896C28.2455 13.8896 27.7398 13.8919 27.366 14.29C26.9564 14.7263 26.9624 15.3354 27.1162 15.9159L28.6138 15.5188C28.5635 15.329 28.5672 15.2413 28.5693 15.2229C28.57 15.2165 28.5692 15.2308 28.5575 15.2578C28.5454 15.2858 28.5252 15.3188 28.4955 15.3505C28.4346 15.4153 28.3724 15.4351 28.3569 15.4392C28.3454 15.4422 28.3515 15.4389 28.3907 15.4389V13.8896ZM27.1163 15.9162C27.2468 16.4075 27.7227 18.2121 28.1902 20.1059C28.6641 22.0257 29.1095 23.9602 29.2007 24.7548L30.7399 24.5783C30.6348 23.662 30.1585 21.615 29.6944 19.7346C29.2238 17.8281 28.7452 16.0137 28.6137 15.5185L27.1163 15.9162ZM29.2008 24.7559C29.3103 25.6992 29.7092 27.969 29.8989 30.2109C29.9925 31.3173 30.0264 32.3418 29.9503 33.1041C29.9119 33.4888 29.8497 33.7586 29.7805 33.9252C29.7066 34.103 29.6803 34.0386 29.7916 34.0014L30.282 35.471C30.7885 35.302 31.0626 34.8775 31.2113 34.5194C31.3646 34.1502 31.447 33.7084 31.4919 33.258C31.5826 32.3503 31.5384 31.2113 31.4427 30.0802C31.2537 27.847 30.829 25.3458 30.7397 24.5772L29.2008 24.7559ZM29.7922 34.0012C29.3449 34.1501 29.0589 34.2683 28.6806 34.3184C28.3338 34.3642 27.8915 34.3493 27.2503 34.1391C25.9218 33.7037 23.8134 32.4578 20.137 29.3409L19.1351 30.5227C22.8317 33.6567 25.134 35.0759 26.7677 35.6113C27.6076 35.8866 28.2843 35.9336 28.8837 35.8543C29.4516 35.7792 29.939 35.5852 30.2814 35.4712L29.7922 34.0012ZM19.0878 29.3845C18.3052 30.1684 16.6353 31.7867 14.7249 32.9265C12.7635 34.0966 10.857 34.5854 9.38191 33.68L8.5715 35.0005C10.8478 36.3975 13.4824 35.4718 15.5186 34.257C17.6058 33.0118 19.3899 31.2748 20.1843 30.4791L19.0878 29.3845ZM9.38211 33.6802C9.1267 33.5233 8.89832 33.2233 8.73673 32.6823C8.57415 32.138 8.50177 31.4201 8.512 30.5458C8.53249 28.7964 8.87809 26.6133 9.27958 24.3405L7.7539 24.071C7.35494 26.3295 6.985 28.6329 6.96281 30.5277C6.95172 31.4754 7.02621 32.3689 7.25223 33.1257C7.47925 33.8858 7.88118 34.5765 8.57129 35.0004L9.38211 33.6802ZM9.27966 24.34C10.0516 19.9542 11.2822 16.773 11.8773 15.1224L10.4198 14.597C9.8286 16.237 8.55206 19.5363 7.75382 24.0715L9.27966 24.34ZM11.0356 14.0933C8.39477 14.4823 8.51603 14.4268 7.8906 14.5627L8.21954 16.0767C8.78028 15.9548 8.50217 16.0325 11.2614 15.6261L11.0356 14.0933ZM7.88645 14.5636C7.661 14.6139 7.45572 14.4808 7.39686 14.3242L5.94669 14.8695C6.28378 15.766 7.26297 16.29 8.22369 16.0757L7.88645 14.5636ZM7.39748 14.3259C7.30527 14.0789 6.90025 12.8802 6.51033 11.7186C6.31719 11.1432 6.13016 10.5842 5.99139 10.169C5.92201 9.96137 5.86471 9.78974 5.82476 9.67003C5.80478 9.61017 5.78914 9.56329 5.7785 9.53139C5.77318 9.51544 5.76911 9.50323 5.76637 9.49501C5.765 9.4909 5.76396 9.48779 5.76327 9.48571C5.76292 9.48467 5.76266 9.48389 5.76248 9.48337C5.7624 9.4831 5.76233 9.48291 5.76229 9.48278C5.76227 9.48271 5.76225 9.48267 5.76224 9.48263C5.76223 9.4826 5.76222 9.48259 5.02734 9.72759C4.29246 9.9726 4.29247 9.97262 4.29248 9.97266C4.29249 9.97269 4.29251 9.97274 4.29253 9.97281C4.29258 9.97294 4.29264 9.97314 4.29273 9.97341C4.29291 9.97394 4.29317 9.97473 4.29352 9.97578C4.29422 9.97788 4.29526 9.98101 4.29664 9.98513C4.29939 9.99338 4.30348 10.0056 4.30881 10.0216C4.31948 10.0536 4.33514 10.1006 4.35515 10.1605C4.39516 10.2804 4.45252 10.4522 4.52198 10.66C4.66088 11.0757 4.84815 11.6354 5.04158 12.2116C5.42481 13.3533 5.842 14.5892 5.94606 14.8678L7.39748 14.3259ZM5.02734 9.72759C5.33296 10.4394 5.33299 10.4394 5.33306 10.4394C5.33314 10.4393 5.33325 10.4393 5.33339 10.4392C5.33369 10.4391 5.33413 10.4389 5.33472 10.4387C5.3359 10.4381 5.33767 10.4374 5.34003 10.4364C5.34473 10.4344 5.35175 10.4313 5.36103 10.4274C5.37957 10.4194 5.40712 10.4076 5.44308 10.3921C5.51501 10.3613 5.62061 10.316 5.75526 10.2583C6.02457 10.1428 6.41005 9.97762 6.87469 9.77877C7.80402 9.38107 9.0498 8.84879 10.3159 8.31036C11.5824 7.77181 12.868 7.22762 13.8774 6.80588C14.3823 6.59491 14.8163 6.41535 15.1434 6.28273C15.3072 6.21633 15.442 6.16262 15.5444 6.12297C15.5957 6.10312 15.6368 6.08758 15.6683 6.0761C15.7026 6.06358 15.7157 6.05943 15.715 6.05964L15.2658 4.57691C15.0526 4.64151 14.2625 4.96585 13.2801 5.37635C12.2661 5.79999 10.977 6.3457 9.70964 6.88463C8.44205 7.42368 7.1951 7.95645 6.26514 8.35443C5.80014 8.55342 5.41433 8.71874 5.14476 8.83432C5.00998 8.89211 4.90424 8.93746 4.8322 8.96837C4.79617 8.98383 4.76857 8.99568 4.74997 9.00366C4.74066 9.00765 4.73361 9.01068 4.72888 9.01271C4.72652 9.01373 4.72473 9.01449 4.72354 9.015C4.72294 9.01526 4.72249 9.01545 4.72219 9.01558C4.72204 9.01565 4.72192 9.0157 4.72185 9.01573C4.72177 9.01576 4.72173 9.01578 5.02734 9.72759ZM15.712 6.06057C15.9229 5.99762 16.1684 5.98507 16.3857 6.01858C16.4922 6.03502 16.5788 6.06056 16.6417 6.08731C16.7074 6.11526 16.7272 6.13581 16.7218 6.13043L17.8159 5.03349C17.4889 4.7074 17.0265 4.54982 16.6219 4.4874C16.1974 4.42192 15.7185 4.4418 15.2689 4.57598L15.712 6.06057ZM16.7196 6.1283C16.8469 6.25623 16.9983 6.34295 17.1054 6.39786C17.2249 6.4591 17.3568 6.51405 17.4874 6.56274C17.7491 6.66036 18.0533 6.75041 18.3439 6.82624C18.6366 6.90263 18.9297 6.96829 19.1745 7.0154C19.3913 7.05712 19.6424 7.09904 19.8101 7.09904V5.54974C19.814 5.54974 19.7065 5.54003 19.4672 5.49401C19.2561 5.45338 18.9958 5.3952 18.7351 5.32716C18.4722 5.25855 18.2231 5.18359 18.0288 5.11113C17.9313 5.07477 17.8595 5.04341 17.8119 5.01901C17.7519 4.98829 17.7727 4.99004 17.818 5.03563L16.7196 6.1283Z" fill="#1D2A2C" mask="url(#path-2-inside-1_1_6820)"/>
<path d="M17.3881 11.6998C16.6346 11.0231 13.3363 11.7442 13.3363 11.7442C13.3363 11.7442 13.1699 12.6138 13.5044 12.8681C13.8364 13.1232 17.0143 12.124 17.3377 12.0617C17.6629 11.9994 17.3881 11.7007 17.3881 11.7007" fill="#FFFDF9"/>
<path d="M16.8333 11.7148C17.6713 11.1482 20.8364 12.325 20.8364 12.325C20.8364 12.325 20.8799 13.2099 20.513 13.4147C20.146 13.6195 17.1396 12.1867 16.8281 12.0783C16.5175 11.9725 16.8333 11.7148 16.8333 11.7148Z" fill="#FFFDF9"/>
<path d="M17.0923 11.9004C16.8295 12.0762 15.9164 14.1567 15.6006 14.8232C15.2849 15.4896 14.4384 16.9668 14.4384 16.9668L13.707 16.2747C13.707 16.2747 16.1707 12.2332 16.5308 12.0805C16.8892 11.932 17.0923 11.9004 17.0923 11.9004Z" fill="#FFFDF9"/>
<path d="M17.0918 11.9004C17.3009 12.1402 17.6439 14.3828 17.7762 15.1107C17.9059 15.8369 18.3428 17.4814 18.3428 17.4814L19.2278 17.0052C19.2278 17.0052 17.8974 12.461 17.5893 12.2213C17.2787 11.9815 17.0918 11.9004 17.0918 11.9004Z" fill="#FFFDF9"/>
<path d="M16.6903 11.4121C16.849 11.4138 17.6819 11.5213 17.6819 11.5213L17.3508 12.3167L16.7441 12.1878L16.6895 11.4121" fill="#FFFDF9"/>
<mask id="path-9-inside-2_1_6820" fill="white">
<path d="M16.1481 18.2424C16.7045 11.2944 17.8881 10.5878 20.2451 9.17803L20.4593 9.05173C22.2847 7.95602 22.9785 6.90467 23.3548 4.91293C23.3044 4.89586 23.2592 4.88477 23.2259 4.88477C23.0211 4.88477 22.8479 4.93767 22.6678 5.11005C22.306 6.72547 21.6592 7.59248 20.1325 8.50985L19.9209 8.637C19.6427 8.80084 19.3807 8.96128 19.1306 9.11829C18.3942 8.71124 17.4905 7.51653 16.917 5.36521C16.7182 5.28585 16.4801 5.23891 16.2292 5.22952C16.7847 7.51995 17.7089 8.88789 18.564 9.50657C16.9426 10.6987 15.9826 12.385 15.5184 18.1921C15.0533 23.9881 16.1674 26.2566 19.359 29.6735C19.5296 29.5088 19.6174 29.2214 19.7463 29.0925C16.7075 25.831 15.7018 23.82 16.1464 18.2424"/>
<path d="M16.0654 19.5532H15.433C15.4527 19.1163 15.4817 18.6631 15.5192 18.1921C15.6737 16.2584 15.8836 14.7812 16.1541 13.6275C16.3999 13.1018 16.6661 12.5505 16.8641 12.2134L17.2174 12.2885C16.7242 13.5191 16.3811 15.3342 16.1481 18.2433C16.1123 18.6973 16.0841 19.1333 16.0654 19.5541M17.5903 11.5103C17.4384 11.4906 17.1321 11.4531 16.9136 11.4309C17.3633 10.5502 17.9103 9.98872 18.564 9.50743C17.7098 8.88874 16.7856 7.5208 16.2292 5.23038C16.4801 5.23976 16.7182 5.2867 16.917 5.36606C17.0126 5.72447 17.1176 6.05643 17.2285 6.36279C17.7866 7.89372 18.5162 8.78036 19.1298 9.11915C19.3798 8.96213 19.6418 8.8017 19.92 8.63785L20.1316 8.5107C21.3059 7.80582 21.9595 7.12911 22.364 6.11958C22.4852 5.81664 22.5842 5.48382 22.667 5.11176C22.847 4.93938 23.0203 4.88647 23.2251 4.88647C23.2584 4.88647 23.3036 4.89756 23.3539 4.91463C22.9776 6.90638 22.2838 7.95772 20.4585 9.05344L20.2443 9.17974C19.1067 9.85986 18.2423 10.377 17.5903 11.5103Z"/>
<path d="M13.7178 12.9098C13.6162 12.9098 13.542 12.897 13.5044 12.868C13.1699 12.6137 13.3363 11.7441 13.3363 11.7441C13.3363 11.7441 14.8638 11.4104 16.0773 11.4104C16.2966 11.4104 16.5057 11.4215 16.6943 11.4471L16.7225 11.8448C16.6926 11.8977 16.6781 11.9574 16.719 12.0086C16.6627 12.0291 16.6004 12.053 16.5322 12.0812C16.4809 12.1025 16.3879 12.2032 16.265 12.3585C15.3835 12.6034 14.2161 12.9106 13.7186 12.9106"/>
<path d="M20.4073 13.4329C19.9746 13.4329 18.6536 12.8731 17.7371 12.4712C17.6765 12.3372 17.6253 12.2493 17.5895 12.2211C17.5348 12.1793 17.4845 12.1418 17.4384 12.1093L17.6663 11.5615C18.9113 11.6076 20.8374 12.3235 20.8374 12.3235C20.8374 12.3235 20.8809 13.2085 20.5139 13.4133C20.4892 13.4269 20.4533 13.4337 20.4073 13.4337M16.7182 12.0086C16.6772 11.9574 16.6917 11.8977 16.7216 11.8448L16.7327 12.0035C16.7276 12.0052 16.7233 12.0069 16.7182 12.0086Z"/>
<path d="M14.4389 16.9667L13.7075 16.2746C13.7075 16.2746 15.5218 13.2989 16.2633 12.3577C16.3862 12.2023 16.4792 12.1025 16.5304 12.0803C16.5987 12.0522 16.661 12.0283 16.7173 12.0078C16.7225 12.0061 16.7267 12.0044 16.7318 12.0027L16.7446 12.1878L16.8624 12.2126C16.6644 12.5497 16.3982 13.1009 16.1524 13.6266C15.9271 14.1088 15.7198 14.5687 15.5994 14.823C15.2837 15.4895 14.4371 16.9667 14.4371 16.9667"/>
<path d="M18.343 17.4812C18.343 17.4812 17.9061 15.8368 17.7764 15.1106C17.6722 14.538 17.4376 13.0275 17.2413 12.2928L17.3531 12.3167L17.4393 12.1093C17.4854 12.1418 17.5366 12.1793 17.5903 12.2211C17.627 12.2493 17.6774 12.3372 17.738 12.4712C18.1936 13.4696 19.2279 17.0051 19.2279 17.0051L18.343 17.4812Z"/>
<path d="M17.3522 12.3167L17.2165 12.2877L16.8633 12.2126L16.7455 12.1878L16.6934 11.4463L16.6909 11.4113C16.731 11.4113 16.8129 11.419 16.9136 11.4292C17.1321 11.4514 17.4384 11.4898 17.5903 11.5086C17.6475 11.5162 17.6833 11.5205 17.6833 11.5205L17.6671 11.5606L17.3531 12.3158"/>
</mask>
<path d="M16.1481 18.2424C16.7045 11.2944 17.8881 10.5878 20.2451 9.17803L20.4593 9.05173C22.2847 7.95602 22.9785 6.90467 23.3548 4.91293C23.3044 4.89586 23.2592 4.88477 23.2259 4.88477C23.0211 4.88477 22.8479 4.93767 22.6678 5.11005C22.306 6.72547 21.6592 7.59248 20.1325 8.50985L19.9209 8.637C19.6427 8.80084 19.3807 8.96128 19.1306 9.11829C18.3942 8.71124 17.4905 7.51653 16.917 5.36521C16.7182 5.28585 16.4801 5.23891 16.2292 5.22952C16.7847 7.51995 17.7089 8.88789 18.564 9.50657C16.9426 10.6987 15.9826 12.385 15.5184 18.1921C15.0533 23.9881 16.1674 26.2566 19.359 29.6735C19.5296 29.5088 19.6174 29.2214 19.7463 29.0925C16.7075 25.831 15.7018 23.82 16.1464 18.2424" fill="#FFFDF9"/>
<path d="M16.0654 19.5532H15.433C15.4527 19.1163 15.4817 18.6631 15.5192 18.1921C15.6737 16.2584 15.8836 14.7812 16.1541 13.6275C16.3999 13.1018 16.6661 12.5505 16.8641 12.2134L17.2174 12.2885C16.7242 13.5191 16.3811 15.3342 16.1481 18.2433C16.1123 18.6973 16.0841 19.1333 16.0654 19.5541M17.5903 11.5103C17.4384 11.4906 17.1321 11.4531 16.9136 11.4309C17.3633 10.5502 17.9103 9.98872 18.564 9.50743C17.7098 8.88874 16.7856 7.5208 16.2292 5.23038C16.4801 5.23976 16.7182 5.2867 16.917 5.36606C17.0126 5.72447 17.1176 6.05643 17.2285 6.36279C17.7866 7.89372 18.5162 8.78036 19.1298 9.11915C19.3798 8.96213 19.6418 8.8017 19.92 8.63785L20.1316 8.5107C21.3059 7.80582 21.9595 7.12911 22.364 6.11958C22.4852 5.81664 22.5842 5.48382 22.667 5.11176C22.847 4.93938 23.0203 4.88647 23.2251 4.88647C23.2584 4.88647 23.3036 4.89756 23.3539 4.91463C22.9776 6.90638 22.2838 7.95772 20.4585 9.05344L20.2443 9.17974C19.1067 9.85986 18.2423 10.377 17.5903 11.5103Z" fill="#FFFDF9"/>
<path d="M13.7178 12.9098C13.6162 12.9098 13.542 12.897 13.5044 12.868C13.1699 12.6137 13.3363 11.7441 13.3363 11.7441C13.3363 11.7441 14.8638 11.4104 16.0773 11.4104C16.2966 11.4104 16.5057 11.4215 16.6943 11.4471L16.7225 11.8448C16.6926 11.8977 16.6781 11.9574 16.719 12.0086C16.6627 12.0291 16.6004 12.053 16.5322 12.0812C16.4809 12.1025 16.3879 12.2032 16.265 12.3585C15.3835 12.6034 14.2161 12.9106 13.7186 12.9106" fill="#FFFDF9"/>
<path d="M20.4073 13.4329C19.9746 13.4329 18.6536 12.8731 17.7371 12.4712C17.6765 12.3372 17.6253 12.2493 17.5895 12.2211C17.5348 12.1793 17.4845 12.1418 17.4384 12.1093L17.6663 11.5615C18.9113 11.6076 20.8374 12.3235 20.8374 12.3235C20.8374 12.3235 20.8809 13.2085 20.5139 13.4133C20.4892 13.4269 20.4533 13.4337 20.4073 13.4337M16.7182 12.0086C16.6772 11.9574 16.6917 11.8977 16.7216 11.8448L16.7327 12.0035C16.7276 12.0052 16.7233 12.0069 16.7182 12.0086Z" fill="#FFFDF9"/>
<path d="M14.4389 16.9667L13.7075 16.2746C13.7075 16.2746 15.5218 13.2989 16.2633 12.3577C16.3862 12.2023 16.4792 12.1025 16.5304 12.0803C16.5987 12.0522 16.661 12.0283 16.7173 12.0078C16.7225 12.0061 16.7267 12.0044 16.7318 12.0027L16.7446 12.1878L16.8624 12.2126C16.6644 12.5497 16.3982 13.1009 16.1524 13.6266C15.9271 14.1088 15.7198 14.5687 15.5994 14.823C15.2837 15.4895 14.4371 16.9667 14.4371 16.9667" fill="#FFFDF9"/>
<path d="M18.343 17.4812C18.343 17.4812 17.9061 15.8368 17.7764 15.1106C17.6722 14.538 17.4376 13.0275 17.2413 12.2928L17.3531 12.3167L17.4393 12.1093C17.4854 12.1418 17.5366 12.1793 17.5903 12.2211C17.627 12.2493 17.6774 12.3372 17.738 12.4712C18.1936 13.4696 19.2279 17.0051 19.2279 17.0051L18.343 17.4812Z" fill="#FFFDF9"/>
<path d="M17.3522 12.3167L17.2165 12.2877L16.8633 12.2126L16.7455 12.1878L16.6934 11.4463L16.6909 11.4113C16.731 11.4113 16.8129 11.419 16.9136 11.4292C17.1321 11.4514 17.4384 11.4898 17.5903 11.5086C17.6475 11.5162 17.6833 11.5205 17.6833 11.5205L17.6671 11.5606L17.3531 12.3158" fill="#FFFDF9"/>
<path d="M20.2451 9.17803L19.8517 8.51073L19.8475 8.51322L20.2451 9.17803ZM20.4593 9.05173L20.8528 9.71904L20.858 9.71591L20.4593 9.05173ZM23.3548 4.91293L24.116 5.05675L24.2409 4.39537L23.6035 4.17928L23.3548 4.91293ZM22.6678 5.11005L22.1321 4.55049L21.9631 4.71235L21.9119 4.94074L22.6678 5.11005ZM20.1325 8.50985L20.5314 9.17387L20.5315 9.17384L20.1325 8.50985ZM19.9209 8.637L20.314 9.30451L20.3198 9.30102L19.9209 8.637ZM19.1306 9.11829L18.7559 9.79627L19.1557 10.0173L19.5426 9.77431L19.1306 9.11829ZM16.917 5.36521L17.6655 5.16568L17.5654 4.78992L17.2042 4.64575L16.917 5.36521ZM16.2292 5.22952L16.2582 4.45542L15.2351 4.41714L15.4764 5.41212L16.2292 5.22952ZM18.564 9.50657L19.0229 10.1307L19.8785 9.50155L19.0181 8.87898L18.564 9.50657ZM15.5184 18.1921L16.2905 18.2541L16.2905 18.2538L15.5184 18.1921ZM19.359 29.6735L18.7929 30.2023L19.3303 30.7777L19.8969 30.2309L19.359 29.6735ZM19.7463 29.0925L20.294 29.6403L20.8228 29.1115L20.3131 28.5644L19.7463 29.0925ZM15.433 19.5532L14.6592 19.5184L14.6228 20.3279H15.433V19.5532ZM15.5192 18.1921L14.747 18.1304L14.747 18.1305L15.5192 18.1921ZM16.1541 13.6275L15.4524 13.2994L15.4183 13.3723L15.3999 13.4506L16.1541 13.6275ZM16.8641 12.2134L17.0252 11.4557L16.479 11.3396L16.1962 11.8211L16.8641 12.2134ZM17.2174 12.2885L17.9364 12.5767L18.279 11.7222L17.3785 11.5308L17.2174 12.2885ZM16.1481 18.2433L15.376 18.1815L15.3759 18.1823L16.1481 18.2433ZM17.5903 11.5103L17.4911 12.2785L18.0039 12.3448L18.2618 11.8966L17.5903 11.5103ZM16.9136 11.4309L16.2237 11.0786L15.7087 12.0872L16.8353 12.2016L16.9136 11.4309ZM18.564 9.50743L19.0233 10.1312L19.8775 9.50228L19.0184 8.88005L18.564 9.50743ZM16.2292 5.23038L16.2582 4.45627L15.2347 4.41798L15.4765 5.41324L16.2292 5.23038ZM16.917 5.36606L17.6655 5.16646L17.5653 4.79075L17.2042 4.64661L16.917 5.36606ZM17.2285 6.36279L16.5001 6.62654L16.5007 6.6281L17.2285 6.36279ZM19.1298 9.11915L18.7553 9.79729L19.1551 10.018L19.5418 9.77516L19.1298 9.11915ZM19.92 8.63785L20.3131 9.30536L20.3189 9.30187L19.92 8.63785ZM20.1316 8.5107L19.7329 7.84653L19.7327 7.84668L20.1316 8.5107ZM22.364 6.11958L23.0831 6.4077L23.0833 6.40728L22.364 6.11958ZM22.667 5.11176L22.1313 4.5522L21.9618 4.71447L21.9108 4.94353L22.667 5.11176ZM23.3539 4.91463L24.1151 5.05845L24.2401 4.39707L23.6026 4.18099L23.3539 4.91463ZM20.4585 9.05344L20.8519 9.72074L20.8572 9.71761L20.4585 9.05344ZM20.2443 9.17974L19.8508 8.51244L19.8468 8.51486L20.2443 9.17974ZM13.5044 12.868L13.9781 12.255L13.9732 12.2513L13.5044 12.868ZM13.3363 11.7441L13.171 10.9873L12.6716 11.0964L12.5755 11.5985L13.3363 11.7441ZM16.6943 11.4471L17.467 11.3924L17.4225 10.7642L16.7985 10.6795L16.6943 11.4471ZM16.7225 11.8448L17.397 12.2256L17.5116 12.0226L17.4952 11.7901L16.7225 11.8448ZM16.719 12.0086L16.9838 12.7366L17.9983 12.3677L17.3239 11.5247L16.719 12.0086ZM16.5322 12.0812L16.2368 11.365L16.2342 11.3661L16.5322 12.0812ZM16.265 12.3585L16.4724 13.1049L16.7158 13.0373L16.8725 12.8392L16.265 12.3585ZM17.7371 12.4712L17.0313 12.7904L17.1538 13.0612L17.426 13.1806L17.7371 12.4712ZM17.5895 12.2211L18.0681 11.612L18.0604 11.606L17.5895 12.2211ZM17.4384 12.1093L16.7232 11.8119L16.4846 12.3854L16.9926 12.7428L17.4384 12.1093ZM17.6663 11.5615L17.6949 10.7874L17.1575 10.7675L16.951 11.264L17.6663 11.5615ZM20.8374 12.3235L21.6111 12.2855L21.586 11.7754L21.1073 11.5974L20.8374 12.3235ZM20.5139 13.4133L20.8882 14.0915L20.8915 14.0897L20.5139 13.4133ZM16.7182 12.0086L16.1133 12.4925L16.4507 12.9143L16.9631 12.7435L16.7182 12.0086ZM16.7216 11.8448L17.4944 11.7908L17.3146 9.21857L16.047 11.464L16.7216 11.8448ZM16.7327 12.0035L16.9777 12.7384L17.5473 12.5485L17.5055 11.9495L16.7327 12.0035ZM13.7075 16.2746L13.0461 15.8713L12.7199 16.4065L13.1751 16.8372L13.7075 16.2746ZM16.2633 12.3577L15.6558 11.877L15.6549 11.8783L16.2633 12.3577ZM16.5304 12.0803L16.235 11.3641L16.2224 11.3695L16.5304 12.0803ZM16.7173 12.0078L16.4724 11.2729L16.4624 11.2762L16.4526 11.2798L16.7173 12.0078ZM16.7318 12.0027L17.5046 11.9492L17.4357 10.9515L16.4869 11.2678L16.7318 12.0027ZM16.7446 12.1878L15.9718 12.2413L16.0122 12.8255L16.5853 12.9459L16.7446 12.1878ZM16.8624 12.2126L17.5304 12.6049L18.0759 11.676L17.0217 11.4545L16.8624 12.2126ZM16.1524 13.6266L15.4507 13.2985L15.4506 13.2987L16.1524 13.6266ZM15.5994 14.823L16.2995 15.1547L16.2996 15.1543L15.5994 14.823ZM18.343 17.4812L17.5943 17.6802L17.8462 18.6282L18.71 18.1634L18.343 17.4812ZM17.7764 15.1106L18.5389 14.9744L18.5385 14.972L17.7764 15.1106ZM17.2413 12.2928L17.4032 11.5353L16.1665 11.2709L16.4929 12.4927L17.2413 12.2928ZM17.3531 12.3167L17.1912 13.0742L17.8212 13.2089L18.0684 12.614L17.3531 12.3167ZM17.4393 12.1093L17.8851 11.4758L17.0948 10.9197L16.724 11.812L17.4393 12.1093ZM17.5903 12.2211L17.1147 12.8326L17.1187 12.8357L17.5903 12.2211ZM17.738 12.4712L17.0321 12.7904L17.0332 12.7928L17.738 12.4712ZM19.2279 17.0051L19.595 17.6872L20.1476 17.3899L19.9714 16.7876L19.2279 17.0051ZM17.2165 12.2877L17.3785 11.5302L17.3776 11.53L17.2165 12.2877ZM16.8633 12.2126L17.0243 11.4549L17.0226 11.4545L16.8633 12.2126ZM16.7455 12.1878L15.9727 12.2421L16.0137 12.8256L16.5862 12.9459L16.7455 12.1878ZM16.6934 11.4463L17.4662 11.392L17.466 11.3897L16.6934 11.4463ZM16.6909 11.4113V10.6366H15.8575L15.9183 11.4678L16.6909 11.4113ZM16.9136 11.4292L16.8352 12.1999L16.8353 12.1999L16.9136 11.4292ZM17.5903 11.5086L17.6935 10.7408L17.6853 10.7398L17.5903 11.5086ZM17.6833 11.5205L18.4015 11.8108L18.7814 10.8711L17.7749 10.7513L17.6833 11.5205ZM17.6671 11.5606L18.3824 11.8581L18.3853 11.8509L17.6671 11.5606ZM16.9203 18.3043C17.1978 14.8395 17.6261 13.069 18.2029 12.0017C18.7502 10.989 19.4547 10.5535 20.6428 9.84284L19.8475 8.51322C18.6786 9.21236 17.6128 9.835 16.8399 11.2651C16.0966 12.6405 15.6549 14.6973 15.376 18.1806L16.9203 18.3043ZM20.6386 9.84531L20.8528 9.71902L20.0659 8.38445L19.8517 8.51075L20.6386 9.84531ZM20.858 9.71591C21.8262 9.1347 22.5547 8.52945 23.0876 7.75895C23.6203 6.98859 23.9166 6.11201 24.116 5.05675L22.5936 4.7691C22.4167 5.70559 22.1779 6.35056 21.8133 6.87773C21.4488 7.40477 20.9178 7.87305 20.0606 8.38756L20.858 9.71591ZM23.6035 4.17928C23.5411 4.15814 23.394 4.11012 23.2259 4.11012V5.65941C23.1924 5.65941 23.1662 5.65671 23.1497 5.65449C23.1327 5.6522 23.1203 5.64965 23.1136 5.64812C23.101 5.64529 23.0977 5.64371 23.1061 5.64657L23.6035 4.17928ZM23.2259 4.11012C22.8424 4.11012 22.4708 4.2263 22.1321 4.55049L23.2035 5.66962C23.2179 5.65582 23.2253 5.65104 23.2254 5.65093C23.2256 5.65084 23.2244 5.65161 23.222 5.65285C23.2195 5.6541 23.2165 5.65548 23.213 5.6568C23.2095 5.65812 23.2064 5.6591 23.2038 5.65978C23.2012 5.66046 23.1998 5.66067 23.2 5.66065C23.2004 5.66059 23.2079 5.65941 23.2259 5.65941V4.11012ZM21.9119 4.94074C21.7465 5.67928 21.5292 6.1887 21.216 6.6086C20.9 7.03229 20.448 7.41653 19.7335 7.84585L20.5315 9.17384C21.3437 8.6858 21.9784 8.17785 22.4579 7.53484C22.9403 6.88804 23.2273 6.15624 23.4237 5.27937L21.9119 4.94074ZM19.7335 7.84583L19.5219 7.97298L20.3198 9.30102L20.5314 9.17387L19.7335 7.84583ZM19.5277 7.96951C19.2422 8.13768 18.9739 8.30201 18.7187 8.46228L19.5426 9.77431C19.7875 9.62054 20.0431 9.46401 20.314 9.30448L19.5277 7.96951ZM19.5054 8.44032C19.0407 8.18349 18.2173 7.23562 17.6655 5.16568L16.1685 5.56473C16.7637 7.79745 17.7477 9.23899 18.7559 9.79627L19.5054 8.44032ZM17.2042 4.64575C16.9101 4.52837 16.5825 4.46755 16.2582 4.45542L16.2002 6.00363C16.3777 6.01027 16.5263 6.04332 16.6299 6.08466L17.2042 4.64575ZM15.4764 5.41212C16.0562 7.80278 17.0508 9.36782 18.1099 10.1342L19.0181 8.87898C18.3671 8.40796 17.5133 7.23711 16.982 5.04693L15.4764 5.41212ZM18.1051 8.88247C17.1846 9.55932 16.4425 10.3951 15.8846 11.8396C15.3429 13.2423 14.98 15.2054 14.7462 18.1304L16.2905 18.2538C16.521 15.3716 16.8702 13.588 17.3299 12.3978C17.7734 11.2494 18.3221 10.646 19.0229 10.1307L18.1051 8.88247ZM14.7462 18.1301C14.5096 21.0784 14.6658 23.2204 15.3386 25.0876C16.0119 26.9559 17.1747 28.4699 18.7929 30.2023L19.9251 29.1447C18.3516 27.4602 17.3616 26.1316 16.7962 24.5624C16.2303 22.9921 16.062 21.1018 16.2905 18.2541L14.7462 18.1301ZM19.8969 30.2309C20.0793 30.0549 20.1945 29.8389 20.2479 29.7414C20.2837 29.6758 20.3001 29.6452 20.317 29.6175C20.3341 29.5894 20.3262 29.6081 20.294 29.6403L19.1985 28.5448C19.102 28.6413 19.0347 28.7443 18.9938 28.8115C18.9527 28.879 18.9123 28.9547 18.8887 28.9978C18.8233 29.1173 18.8093 29.1274 18.821 29.1161L19.8969 30.2309ZM20.3131 28.5644C18.8119 26.9533 17.8903 25.7295 17.3694 24.2748C16.8477 22.8181 16.6999 21.0486 16.9186 18.304L15.3742 18.1809C15.1484 21.0139 15.281 23.0386 15.9108 24.7971C16.5412 26.5577 17.6418 27.9702 19.1795 29.6206L20.3131 28.5644ZM16.0654 18.7786H15.433V20.3279H16.0654V18.7786ZM16.2069 19.588C16.2261 19.1612 16.2545 18.7171 16.2914 18.2536L14.747 18.1305C14.7089 18.6092 14.6792 19.0714 14.6592 19.5184L16.2069 19.588ZM16.2914 18.2538C16.4442 16.3405 16.6501 14.9057 16.9083 13.8043L15.3999 13.4506C15.1171 14.6567 14.9031 16.1763 14.747 18.1304L16.2914 18.2538ZM16.8559 13.9555C17.104 13.4248 17.3555 12.9064 17.5321 12.6058L16.1962 11.8211C15.9768 12.1946 15.6957 12.7788 15.4524 13.2994L16.8559 13.9555ZM16.7031 12.9712L17.0563 13.0463L17.3785 11.5308L17.0252 11.4557L16.7031 12.9712ZM16.4984 12.0003C15.9597 13.3442 15.6102 15.2563 15.376 18.1815L16.9203 18.3051C17.152 15.412 17.4886 13.694 17.9364 12.5767L16.4984 12.0003ZM15.3759 18.1823C15.3395 18.6432 15.3107 19.0883 15.2915 19.5195L16.8392 19.5886C16.8575 19.1784 16.8851 18.7513 16.9204 18.3043L15.3759 18.1823ZM17.6896 10.742C17.5348 10.722 17.2205 10.6834 16.9919 10.6602L16.8353 12.2016C17.0436 12.2227 17.3421 12.2593 17.4911 12.2785L17.6896 10.742ZM17.6035 11.7832C17.9893 11.0278 18.4488 10.5542 19.0233 10.1312L18.1047 8.88363C17.3719 9.42321 16.7374 10.0727 16.2237 11.0786L17.6035 11.7832ZM19.0184 8.88005C18.368 8.40895 17.514 7.23784 16.982 5.04752L15.4765 5.41324C16.0572 7.80376 17.0516 9.36853 18.1096 10.1348L19.0184 8.88005ZM16.2002 6.00448C16.3777 6.01112 16.5263 6.04417 16.6299 6.08552L17.2042 4.64661C16.9101 4.52923 16.5825 4.46841 16.2582 4.45627L16.2002 6.00448ZM16.1685 5.56566C16.2698 5.94545 16.3815 6.29882 16.5001 6.62654L17.9569 6.09903C17.8537 5.81404 17.7554 5.5035 17.6655 5.16646L16.1685 5.56566ZM16.5007 6.6281C17.0883 8.24002 17.9072 9.32899 18.7553 9.79729L19.5042 8.44101C19.1252 8.23173 18.4849 7.54742 17.9563 6.09747L16.5007 6.6281ZM19.5418 9.77516C19.7866 9.62139 20.0423 9.46486 20.3131 9.30534L19.5269 7.97037C19.2414 8.13853 18.973 8.30286 18.7178 8.46313L19.5418 9.77516ZM20.3189 9.30187L20.5306 9.17472L19.7327 7.84668L19.5211 7.97383L20.3189 9.30187ZM20.5303 9.17487C21.8002 8.4126 22.5972 7.62034 23.0831 6.40769L21.645 5.83146C21.3218 6.63788 20.8116 7.19904 19.7329 7.84653L20.5303 9.17487ZM23.0833 6.40728C23.223 6.05789 23.3333 5.68384 23.4231 5.27999L21.9108 4.94353C21.8351 5.28381 21.7474 5.57539 21.6448 5.83188L23.0833 6.40728ZM23.2027 5.67132C23.2171 5.65752 23.2244 5.65274 23.2246 5.65263C23.2247 5.65254 23.2235 5.65332 23.2211 5.65455C23.2187 5.6558 23.2156 5.65718 23.2122 5.6585C23.2087 5.65982 23.2055 5.66081 23.2029 5.66149C23.2004 5.66216 23.199 5.66238 23.1991 5.66236C23.1995 5.6623 23.2071 5.66112 23.2251 5.66112V4.11182C22.8415 4.11182 22.4699 4.22801 22.1313 4.5522L23.2027 5.67132ZM23.2251 5.66112C23.1915 5.66112 23.1653 5.65841 23.1488 5.65619C23.1318 5.65391 23.1195 5.65135 23.1127 5.64983C23.1002 5.647 23.0968 5.64542 23.1052 5.64827L23.6026 4.18099C23.5402 4.15984 23.3932 4.11182 23.2251 4.11182V5.66112ZM22.5927 4.77081C22.4158 5.70729 22.177 6.35226 21.8124 6.87944C21.448 7.40648 20.9169 7.87475 20.0598 8.38926L20.8572 9.71761C21.8254 9.1364 22.5539 8.53115 23.0867 7.76066C23.6195 6.99029 23.9157 6.11372 24.1151 5.05845L22.5927 4.77081ZM20.065 8.38615L19.8508 8.51245L20.6377 9.84702L20.8519 9.72072L20.065 8.38615ZM19.8468 8.51486C18.7218 9.18746 17.6839 9.79409 16.9189 11.124L18.2618 11.8966C18.8006 10.9599 19.4917 10.5323 20.6418 9.84461L19.8468 8.51486ZM13.7178 12.1351C13.6947 12.1351 13.7031 12.1333 13.7316 12.1387C13.747 12.1416 13.777 12.1483 13.8157 12.1631C13.8535 12.1775 13.9132 12.2048 13.9781 12.255L13.0308 13.4809C13.1889 13.6031 13.3546 13.6441 13.4426 13.6608C13.5429 13.6799 13.6392 13.6844 13.7178 13.6844V12.1351ZM13.9732 12.2513C14.0827 12.3345 14.095 12.4206 14.0853 12.3845C14.078 12.3575 14.0696 12.2992 14.0696 12.21C14.0695 12.1261 14.0766 12.0424 14.0845 11.9772C14.0884 11.9456 14.0921 11.9206 14.0947 11.9047C14.0959 11.8969 14.0969 11.8914 14.0973 11.8888C14.0976 11.8875 14.0977 11.8869 14.0977 11.887C14.0977 11.8871 14.0976 11.8873 14.0975 11.8878C14.0975 11.888 14.0974 11.8882 14.0974 11.8886C14.0973 11.8887 14.0973 11.8889 14.0973 11.8891C14.0972 11.8892 14.0972 11.8893 14.0972 11.8894C14.0972 11.8895 14.0972 11.8897 13.3363 11.7441C12.5755 11.5985 12.5754 11.5987 12.5754 11.5988C12.5754 11.5989 12.5754 11.599 12.5753 11.5992C12.5753 11.5994 12.5752 11.5997 12.5752 11.5999C12.5751 11.6005 12.575 11.601 12.5749 11.6017C12.5746 11.603 12.5743 11.6045 12.574 11.6062C12.5734 11.6096 12.5726 11.6139 12.5717 11.619C12.5699 11.6292 12.5676 11.6427 12.565 11.6592C12.5597 11.6919 12.5531 11.7368 12.5465 11.7906C12.5337 11.8965 12.5201 12.046 12.5203 12.2113C12.5204 12.3713 12.5332 12.5781 12.5888 12.7857C12.642 12.9841 12.7589 13.2743 13.0356 13.4846L13.9732 12.2513ZM13.3363 11.7441C13.5016 12.5009 13.5016 12.5009 13.5015 12.5009C13.5015 12.5009 13.5015 12.5009 13.5014 12.5009C13.5014 12.5009 13.5014 12.5009 13.5014 12.5009C13.5014 12.5009 13.5015 12.5009 13.5017 12.5009C13.5022 12.5008 13.5029 12.5006 13.504 12.5004C13.5063 12.4999 13.51 12.4991 13.515 12.498C13.5251 12.4959 13.5406 12.4926 13.5611 12.4884C13.6022 12.4799 13.6632 12.4675 13.7407 12.4526C13.8957 12.4227 14.1154 12.3826 14.3714 12.3426C14.8908 12.2614 15.53 12.1851 16.0773 12.1851V10.6358C15.4111 10.6358 14.6798 10.7263 14.1321 10.8119C13.8545 10.8553 13.6165 10.8987 13.4472 10.9313C13.3625 10.9477 13.2947 10.9614 13.2475 10.9711C13.2239 10.976 13.2054 10.9799 13.1925 10.9827C13.1861 10.984 13.181 10.9851 13.1774 10.9859C13.1756 10.9863 13.1742 10.9866 13.1731 10.9868C13.1726 10.9869 13.1721 10.987 13.1718 10.9871C13.1716 10.9872 13.1714 10.9872 13.1713 10.9872C13.1712 10.9872 13.1712 10.9872 13.1711 10.9873C13.1711 10.9873 13.171 10.9873 13.3363 11.7441ZM16.0773 12.1851C16.2725 12.1851 16.4452 12.1951 16.5901 12.2147L16.7985 10.6795C16.5661 10.648 16.3207 10.6358 16.0773 10.6358V12.1851ZM15.9216 11.5018L15.9497 11.8995L17.4952 11.7901L17.467 11.3924L15.9216 11.5018ZM16.0479 11.464C15.972 11.5983 15.766 12.0574 16.1141 12.4925L17.3239 11.5247C17.4378 11.667 17.4784 11.8391 17.4664 11.9892C17.4562 12.1157 17.4119 12.1993 17.397 12.2256L16.0479 11.464ZM16.4543 11.2806C16.3884 11.3046 16.3159 11.3324 16.2368 11.3651L16.8275 12.7973C16.885 12.7736 16.937 12.7536 16.9838 12.7366L16.4543 11.2806ZM16.2342 11.3661C16.1156 11.4155 16.0302 11.4832 15.9902 11.5166C15.9416 11.557 15.8989 11.5992 15.8646 11.6353C15.7958 11.7076 15.7249 11.7927 15.6576 11.8779L16.8725 12.8392C16.8992 12.8054 16.9225 12.777 16.9423 12.7536C16.9625 12.7298 16.977 12.7137 16.9864 12.7039C16.9909 12.6991 16.9931 12.6971 16.993 12.6971C16.993 12.6972 16.992 12.698 16.9903 12.6996C16.9887 12.7011 16.9859 12.7036 16.982 12.7068C16.9751 12.7125 16.9606 12.7242 16.9393 12.7383C16.9284 12.7456 16.9141 12.7545 16.8967 12.7641C16.8795 12.7736 16.8572 12.7849 16.8301 12.7962L16.2342 11.3661ZM16.0577 11.6121C15.6194 11.7339 15.1204 11.8682 14.6732 11.9717C14.1992 12.0814 13.866 12.136 13.7186 12.136V13.6853C14.0688 13.6853 14.568 13.5863 15.0225 13.4811C15.5037 13.3698 16.0292 13.228 16.4724 13.1049L16.0577 11.6121ZM20.4073 12.6582C20.4208 12.6582 20.3513 12.6539 20.1558 12.5962C19.9838 12.5454 19.7701 12.4706 19.5296 12.3789C19.0496 12.1959 18.5049 11.962 18.0482 11.7617L17.426 13.1806C17.8858 13.3823 18.4599 13.6292 18.9777 13.8266C19.236 13.9251 19.4911 14.0154 19.717 14.0821C19.9196 14.1419 20.1774 14.2075 20.4073 14.2075V12.6582ZM18.4429 12.152C18.4065 12.0713 18.3658 11.9886 18.3217 11.9136C18.2934 11.8655 18.21 11.7235 18.0681 11.612L17.1109 12.8302C17.0752 12.8022 17.0497 12.7765 17.0344 12.7599C17.0185 12.7427 17.0073 12.7285 17.0008 12.7199C16.9884 12.7034 16.9836 12.6946 16.9864 12.6993C16.9884 12.7028 16.9936 12.712 17.0019 12.7284C17.0099 12.7444 17.0198 12.765 17.0313 12.7904L18.4429 12.152ZM18.0604 11.606C18.0019 11.5612 17.9423 11.5167 17.8842 11.4758L16.9926 12.7428C17.0267 12.7668 17.0678 12.7974 17.1185 12.8362L18.0604 11.606ZM18.1537 12.4068L18.3815 11.8589L16.951 11.264L16.7232 11.8119L18.1537 12.4068ZM17.6376 12.3356C18.1589 12.3549 18.8743 12.5215 19.503 12.7038C19.8079 12.7922 20.0763 12.8795 20.2681 12.9445C20.3639 12.977 20.4401 13.0038 20.4917 13.0222C20.5176 13.0314 20.5372 13.0386 20.55 13.0432C20.5564 13.0456 20.5612 13.0473 20.5641 13.0484C20.5656 13.0489 20.5666 13.0493 20.5671 13.0495C20.5674 13.0496 20.5676 13.0497 20.5676 13.0497C20.5677 13.0497 20.5677 13.0497 20.5676 13.0497C20.5676 13.0497 20.5676 13.0497 20.5676 13.0497C20.5675 13.0496 20.5674 13.0496 20.8374 12.3235C21.1073 11.5974 21.1072 11.5974 21.1071 11.5974C21.1071 11.5973 21.107 11.5973 21.1069 11.5973C21.1068 11.5972 21.1066 11.5972 21.1064 11.5971C21.106 11.5969 21.1054 11.5967 21.1048 11.5965C21.1035 11.596 21.1017 11.5954 21.0995 11.5945C21.0951 11.5929 21.0888 11.5906 21.0808 11.5877C21.0648 11.5819 21.0419 11.5736 21.0126 11.5631C20.954 11.5422 20.8701 11.5127 20.7658 11.4773C20.5576 11.4067 20.2666 11.3121 19.9344 11.2158C19.2888 11.0286 18.4187 10.8141 17.6949 10.7874L17.6376 12.3356ZM20.8374 12.3235C20.0636 12.3616 20.0636 12.3614 20.0636 12.3613C20.0636 12.3612 20.0636 12.3611 20.0636 12.361C20.0636 12.3608 20.0636 12.3606 20.0636 12.3604C20.0636 12.3601 20.0636 12.3598 20.0636 12.3596C20.0635 12.3592 20.0635 12.3589 20.0635 12.3588C20.0635 12.3587 20.0635 12.3593 20.0636 12.3607C20.0637 12.3634 20.0639 12.3689 20.064 12.3769C20.0643 12.3929 20.0645 12.4182 20.0639 12.4501C20.0627 12.5158 20.0581 12.5998 20.0463 12.6829C20.0337 12.7712 20.0173 12.8278 20.0064 12.8535C19.9918 12.8879 20.0161 12.804 20.1364 12.7368L20.8915 14.0897C21.1953 13.9201 21.3517 13.6488 21.4322 13.4597C21.5163 13.2619 21.5578 13.0588 21.5802 12.9003C21.6034 12.7366 21.6109 12.5865 21.6129 12.4799C21.614 12.4256 21.6137 12.3802 21.613 12.347C21.6127 12.3304 21.6123 12.3167 21.6119 12.3063C21.6117 12.3012 21.6116 12.2968 21.6114 12.2933C21.6114 12.2916 21.6113 12.29 21.6112 12.2887C21.6112 12.2881 21.6112 12.2875 21.6111 12.2869C21.6111 12.2867 21.6111 12.2864 21.6111 12.2862C21.6111 12.286 21.6111 12.2859 21.6111 12.2858C21.6111 12.2856 21.6111 12.2855 20.8374 12.3235ZM20.1397 12.735C20.216 12.6929 20.2827 12.6755 20.3228 12.6678C20.364 12.6599 20.3939 12.6591 20.4073 12.6591V14.2084C20.5092 14.2084 20.6974 14.1968 20.8882 14.0915L20.1397 12.735ZM17.3231 11.5247C17.4369 11.667 17.4775 11.8391 17.4655 11.9892C17.4554 12.1157 17.411 12.1993 17.3962 12.2256L16.047 11.464C15.9712 11.5983 15.7652 12.0574 16.1133 12.4925L17.3231 11.5247ZM15.9488 11.8988L15.9599 12.0575L17.5055 11.9495L17.4944 11.7908L15.9488 11.8988ZM16.4877 11.2686C16.4803 11.2711 16.4741 11.2733 16.4695 11.2749C16.4653 11.2764 16.4615 11.2778 16.4607 11.278C16.4592 11.2786 16.4606 11.2781 16.4624 11.2775C16.4646 11.2767 16.4684 11.2753 16.4732 11.2737L16.9631 12.7435C16.9705 12.7411 16.9768 12.7389 16.9814 12.7372C16.9856 12.7357 16.9894 12.7344 16.9901 12.7341C16.9917 12.7335 16.9903 12.734 16.9885 12.7347C16.9863 12.7355 16.9825 12.7368 16.9777 12.7384L16.4877 11.2686ZM14.9713 16.404L14.24 15.7119L13.1751 16.8372L13.9064 17.5293L14.9713 16.404ZM13.7075 16.2746C14.3689 16.6778 14.3689 16.6778 14.3689 16.6778C14.3689 16.6778 14.369 16.6778 14.369 16.6778C14.369 16.6777 14.3691 16.6776 14.3692 16.6774C14.3694 16.6771 14.3697 16.6766 14.3701 16.6759C14.371 16.6745 14.3722 16.6725 14.3739 16.6697C14.3773 16.6642 14.3823 16.6559 14.3889 16.6451C14.4022 16.6234 14.4219 16.5913 14.4472 16.55C14.4978 16.4675 14.5711 16.3484 14.6614 16.2025C14.842 15.9104 15.0904 15.5116 15.3616 15.0839C15.9134 14.2136 16.5304 13.2704 16.8718 12.8371L15.6549 11.8783C15.2547 12.3861 14.5938 13.4015 14.0531 14.2543C13.778 14.6882 13.5265 15.0921 13.3438 15.3874C13.2524 15.5351 13.1782 15.6558 13.1267 15.7397C13.1009 15.7817 13.0809 15.8144 13.0672 15.8368C13.0604 15.848 13.0552 15.8565 13.0516 15.8623C13.0498 15.8652 13.0485 15.8674 13.0476 15.869C13.0471 15.8697 13.0468 15.8703 13.0465 15.8707C13.0464 15.8709 13.0463 15.871 13.0462 15.8711C13.0462 15.8712 13.0462 15.8712 13.0462 15.8713C13.0461 15.8713 13.0461 15.8713 13.7075 16.2746ZM16.8708 12.8383C16.8973 12.8049 16.9204 12.7767 16.9401 12.7535C16.9601 12.7299 16.9746 12.7139 16.9841 12.704C16.9863 12.7017 16.988 12.6999 16.9892 12.6987C16.9898 12.6981 16.9903 12.6976 16.9906 12.6973C16.9909 12.697 16.9911 12.6968 16.9911 12.6969C16.9911 12.6969 16.9909 12.697 16.9905 12.6974C16.9901 12.6977 16.9896 12.6983 16.9888 12.699C16.9873 12.7003 16.9847 12.7026 16.9811 12.7056C16.9746 12.711 16.961 12.722 16.941 12.7354C16.9307 12.7424 16.9173 12.7509 16.901 12.7601C16.8848 12.7692 16.8638 12.7801 16.8385 12.7911L16.2224 11.3695C16.0357 11.4505 15.9028 11.5929 15.8635 11.6341C15.7947 11.7062 15.7238 11.7911 15.6558 11.877L16.8708 12.8383ZM16.8258 12.7964C16.8833 12.7727 16.9353 12.7528 16.9821 12.7358L16.4526 11.2798C16.3867 11.3037 16.3142 11.3316 16.235 11.3642L16.8258 12.7964ZM16.9623 12.7427C16.9697 12.7402 16.9759 12.738 16.9805 12.7364C16.9847 12.7349 16.9885 12.7335 16.9893 12.7332C16.9908 12.7327 16.9894 12.7332 16.9876 12.7338C16.9854 12.7346 16.9816 12.7359 16.9768 12.7376L16.4869 11.2678C16.4795 11.2702 16.4733 11.2724 16.4687 11.274C16.4644 11.2755 16.4607 11.2769 16.4599 11.2772C16.4583 11.2778 16.4597 11.2772 16.4616 11.2766C16.4638 11.2758 16.4675 11.2745 16.4724 11.2729L16.9623 12.7427ZM15.959 12.0561L15.9718 12.2413L17.5174 12.1344L17.5046 11.9492L15.959 12.0561ZM16.5853 12.9459L16.7031 12.9707L17.0217 11.4545L16.9039 11.4297L16.5853 12.9459ZM16.1944 11.8203C15.9751 12.1938 15.694 12.778 15.4507 13.2985L16.8541 13.9547C17.1023 13.4239 17.3538 12.9056 17.5304 12.6049L16.1944 11.8203ZM15.4506 13.2987C15.2142 13.8046 15.0226 14.2308 14.8992 14.4917L16.2996 15.1543C16.4169 14.9066 16.64 14.4129 16.8542 13.9545L15.4506 13.2987ZM14.8994 14.4914C14.7537 14.7988 14.475 15.3138 14.2225 15.769C14.0983 15.9928 13.9838 16.1963 13.9002 16.3438C13.8585 16.4175 13.8246 16.4772 13.8011 16.5183C13.7894 16.5388 13.7803 16.5548 13.7742 16.5655C13.7711 16.5708 13.7688 16.5749 13.7673 16.5776C13.7665 16.5789 13.7659 16.5799 13.7656 16.5806C13.7654 16.5809 13.7652 16.5812 13.7651 16.5813C13.7651 16.5814 13.7651 16.5814 13.7651 16.5815C13.765 16.5815 13.765 16.5815 13.765 16.5815C13.765 16.5815 13.765 16.5815 14.4371 16.9667C15.1093 17.3518 15.1093 17.3518 15.1093 17.3518C15.1093 17.3518 15.1093 17.3517 15.1093 17.3517C15.1094 17.3517 15.1094 17.3516 15.1095 17.3515C15.1096 17.3513 15.1097 17.351 15.11 17.3506C15.1104 17.3498 15.1111 17.3487 15.1119 17.3472C15.1136 17.3443 15.116 17.34 15.1193 17.3343C15.1257 17.3231 15.1351 17.3066 15.1471 17.2855C15.1712 17.2432 15.2059 17.1823 15.2485 17.1071C15.3335 16.9568 15.4504 16.7493 15.5773 16.5206C15.827 16.0705 16.1294 15.5137 16.2995 15.1547L14.8994 14.4914ZM18.343 17.4812C19.0917 17.2823 19.0917 17.2823 19.0917 17.2823C19.0917 17.2823 19.0917 17.2823 19.0916 17.2823C19.0916 17.2823 19.0916 17.2822 19.0916 17.2821C19.0916 17.282 19.0915 17.2817 19.0914 17.2813C19.0912 17.2806 19.0909 17.2795 19.0905 17.278C19.0897 17.275 19.0885 17.2705 19.087 17.2646C19.0838 17.2526 19.0791 17.235 19.0731 17.2121C19.0611 17.1664 19.0437 17.1001 19.0225 17.0182C18.9799 16.8543 18.9218 16.6285 18.8598 16.3804C18.7336 15.8755 18.5984 15.3076 18.5389 14.9744L17.0138 15.2468C17.084 15.6398 17.2321 16.2572 17.3568 16.7561C17.4202 17.0099 17.4795 17.2406 17.5229 17.4077C17.5446 17.4913 17.5624 17.5592 17.5748 17.6062C17.581 17.6298 17.5858 17.6481 17.5891 17.6606C17.5908 17.6669 17.5921 17.6717 17.5929 17.675C17.5934 17.6766 17.5937 17.6779 17.5939 17.6788C17.5941 17.6792 17.5941 17.6795 17.5942 17.6798C17.5942 17.6799 17.5943 17.68 17.5943 17.68C17.5943 17.6801 17.5943 17.6801 17.5943 17.6801C17.5943 17.6801 17.5943 17.6802 18.343 17.4812ZM18.5385 14.972C18.4434 14.4487 18.1967 12.868 17.9897 12.0929L16.4929 12.4927C16.6784 13.1871 16.9011 14.6273 17.0142 15.2492L18.5385 14.972ZM17.0794 13.0503L17.1912 13.0742L17.515 11.5592L17.4032 11.5353L17.0794 13.0503ZM18.0684 12.614L18.1546 12.4066L16.724 11.812L16.6378 12.0194L18.0684 12.614ZM16.9935 12.7428C17.0304 12.7688 17.0716 12.799 17.1147 12.8326L18.0659 11.6096C18.0015 11.5596 17.9403 11.5147 17.8851 11.4758L16.9935 12.7428ZM17.1187 12.8357C17.0815 12.8071 17.0549 12.7807 17.0386 12.7632C17.0218 12.7452 17.0099 12.7302 17.0028 12.721C16.9895 12.7033 16.9842 12.6936 16.9868 12.698C16.9887 12.7012 16.9938 12.7103 17.0022 12.727C17.0103 12.7434 17.0203 12.7643 17.0321 12.7903L18.4438 12.152C18.4081 12.073 18.3677 11.9902 18.3236 11.9149C18.2956 11.8672 18.2101 11.7203 18.0619 11.6066L17.1187 12.8357ZM17.0332 12.7928C17.2365 13.2382 17.5939 14.319 17.9145 15.3438C18.0711 15.8444 18.2137 16.3145 18.3172 16.6596C18.3689 16.832 18.4108 16.9731 18.4398 17.0709C18.4542 17.1198 18.4654 17.1579 18.473 17.1837C18.4768 17.1965 18.4797 17.2064 18.4816 17.2129C18.4826 17.2162 18.4833 17.2186 18.4838 17.2203C18.484 17.2211 18.4842 17.2217 18.4843 17.222C18.4843 17.2222 18.4844 17.2224 18.4844 17.2225C18.4844 17.2225 18.4844 17.2225 18.4844 17.2226C18.4844 17.2226 18.4844 17.2226 19.2279 17.0051C19.9714 16.7876 19.9714 16.7875 19.9714 16.7875C19.9714 16.7875 19.9714 16.7874 19.9713 16.7873C19.9713 16.7872 19.9713 16.787 19.9712 16.7868C19.971 16.7863 19.9708 16.7856 19.9706 16.7847C19.9701 16.783 19.9693 16.7803 19.9683 16.7769C19.9663 16.77 19.9633 16.7598 19.9594 16.7466C19.9516 16.7201 19.9401 16.6812 19.9254 16.6315C19.896 16.532 19.8535 16.3891 19.8012 16.2145C19.6965 15.8655 19.5521 15.3893 19.3931 14.8812C19.0827 13.8887 18.6951 12.7025 18.4427 12.1495L17.0332 12.7928ZM18.8609 16.3229L17.9759 16.7991L18.71 18.1634L19.595 17.6872L18.8609 16.3229ZM17.3776 11.53L17.0243 11.4549L16.7022 12.9703L17.0555 13.0454L17.3776 11.53ZM17.0226 11.4545L16.9048 11.4297L16.5862 12.9459L16.7039 12.9707L17.0226 11.4545ZM17.466 11.3897L17.4635 11.3548L15.9183 11.4678L15.9209 11.5028L17.466 11.3897ZM16.6909 12.1859C16.6792 12.1859 16.6748 12.1855 16.6827 12.1859C16.6891 12.1863 16.6994 12.187 16.7146 12.1883C16.7455 12.1909 16.7854 12.1948 16.8352 12.1999L16.992 10.6585C16.9105 10.6502 16.7802 10.6366 16.6909 10.6366V12.1859ZM16.8353 12.1999C17.0433 12.221 17.3393 12.2581 17.4953 12.2774L17.6853 10.7398C17.5376 10.7215 17.2208 10.6818 16.9919 10.6585L16.8353 12.1999ZM17.4872 12.2763C17.5182 12.2805 17.5436 12.2837 17.5616 12.286C17.5706 12.2871 17.5777 12.288 17.5828 12.2886C17.5854 12.289 17.5874 12.2892 17.5889 12.2894C17.5897 12.2895 17.5903 12.2895 17.5908 12.2896C17.591 12.2896 17.5912 12.2897 17.5914 12.2897C17.5914 12.2897 17.5915 12.2897 17.5916 12.2897C17.5916 12.2897 17.5916 12.2897 17.5917 12.2897C17.5917 12.2897 17.5917 12.2897 17.5917 12.2897C17.5917 12.2897 17.5917 12.2897 17.5917 12.2897C17.5917 12.2897 17.5918 12.2897 17.6833 11.5205C17.7749 10.7513 17.7749 10.7513 17.7749 10.7513C17.7749 10.7513 17.7749 10.7513 17.7749 10.7513C17.775 10.7513 17.775 10.7513 17.775 10.7513C17.775 10.7513 17.775 10.7513 17.775 10.7513C17.7751 10.7513 17.7751 10.7513 17.7751 10.7513C17.7751 10.7513 17.7751 10.7513 17.7751 10.7513C17.775 10.7513 17.7748 10.7513 17.7744 10.7512C17.7738 10.7512 17.7726 10.751 17.7709 10.7508C17.7674 10.7504 17.7621 10.7497 17.755 10.7488C17.7408 10.747 17.7197 10.7443 17.6934 10.7408L17.4872 12.2763ZM16.9652 11.2302L16.9489 11.2703L18.3853 11.8509L18.4015 11.8108L16.9652 11.2302ZM17.5142 11.5592L17.3785 11.5302L17.0546 13.0452L17.1902 13.0742L17.5142 11.5592ZM17.5182 12.1336L17.4662 11.392L15.9207 11.5005L15.9727 12.2421L17.5182 12.1336ZM16.9518 11.2632L16.6378 12.0184L18.0684 12.6133L18.3824 11.858L16.9518 11.2632Z" fill="#1D2A2C" mask="url(#path-9-inside-2_1_6820)"/>
</svg>
