<svg width="16" height="16" viewBox="0 0 16 16" fill="none" xmlns="http://www.w3.org/2000/svg">
<g id="Copy">
<path id="Vector" fill-rule="evenodd" clip-rule="evenodd" d="M10 0.833008H7.296C6.07067 0.833008 5.1 0.833008 4.34067 0.935008C3.55933 1.04034 2.92667 1.26167 2.42733 1.76034C1.92867 2.25967 1.70733 2.89234 1.602 3.67367C1.5 4.43367 1.5 5.40367 1.5 6.62901V10.6663C1.50002 11.262 1.71262 11.838 2.09956 12.2908C2.48649 12.7436 3.02234 13.0435 3.61067 13.1363C3.702 13.6457 3.87867 14.0803 4.232 14.4343C4.63333 14.8357 5.13867 15.0077 5.73867 15.089C6.31667 15.1663 7.052 15.1663 7.96333 15.1663H10.0367C10.948 15.1663 11.6833 15.1663 12.2613 15.089C12.8613 15.0077 13.3667 14.8357 13.768 14.4343C14.1693 14.033 14.3413 13.5277 14.4227 12.9277C14.5 12.3497 14.5 11.6143 14.5 10.703V7.29634C14.5 6.38501 14.5 5.64967 14.4227 5.07167C14.3413 4.47167 14.1693 3.96634 13.768 3.56501C13.414 3.21167 12.9793 3.03501 12.47 2.94367C12.3771 2.35535 12.0773 1.8195 11.6245 1.43257C11.1717 1.04563 10.5956 0.833024 10 0.833008ZM11.42 2.84701C11.3186 2.55101 11.1272 2.29411 10.8726 2.11229C10.618 1.93047 10.3129 1.83282 10 1.83301H7.33333C6.062 1.83301 5.15933 1.83434 4.47333 1.92634C3.80333 2.01634 3.41667 2.18567 3.13467 2.46767C2.85267 2.74967 2.68333 3.13634 2.59333 3.80701C2.50133 4.49234 2.5 5.39501 2.5 6.66634V10.6663C2.49981 10.9792 2.59746 11.2843 2.77928 11.539C2.96111 11.7936 3.218 11.985 3.514 12.0863C3.5 11.6797 3.5 11.2197 3.5 10.703V7.29634C3.5 6.38501 3.5 5.64967 3.578 5.07167C3.658 4.47167 3.83133 3.96634 4.232 3.56501C4.63333 3.16367 5.13867 2.99167 5.73867 2.91101C6.31667 2.83301 7.052 2.83301 7.96333 2.83301H10.0367C10.5533 2.83301 11.0133 2.83301 11.42 2.84701ZM4.93867 4.27301C5.12333 4.08834 5.382 3.96834 5.872 3.90234C6.37467 3.83501 7.04267 3.83367 7.99933 3.83367H9.99933C10.956 3.83367 11.6233 3.83501 12.1273 3.90234C12.6167 3.96834 12.8753 4.08901 13.06 4.27301C13.2447 4.45767 13.3647 4.71634 13.4307 5.20634C13.498 5.70901 13.4993 6.37701 13.4993 7.33367V10.667C13.4993 11.6237 13.498 12.291 13.4307 12.795C13.3647 13.2843 13.244 13.543 13.06 13.7277C12.8753 13.9123 12.6167 14.0323 12.1267 14.0983C11.6233 14.1657 10.956 14.167 9.99933 14.167H7.99933C7.04267 14.167 6.37467 14.1657 5.87133 14.0983C5.382 14.0323 5.12333 13.9117 4.93867 13.7277C4.754 13.543 4.634 13.2843 4.568 12.7943C4.50067 12.291 4.49933 11.6237 4.49933 10.667V7.33367C4.49933 6.37701 4.50067 5.70901 4.568 5.20567C4.634 4.71634 4.75467 4.45767 4.93867 4.27301Z" fill="white"/>
</g>
</svg>
