<svg width="40" height="40" viewBox="0 0 40 40" fill="none" xmlns="http://www.w3.org/2000/svg">
<path d="M30.6282 8.64907L30.6283 8.64907C30.9038 8.64759 31.0934 8.70229 31.2176 8.77606C31.3358 8.84632 31.413 8.94396 31.4556 9.07432C31.5478 9.35635 31.4891 9.84701 31.1106 10.5119C31.0518 10.6151 31.0437 10.7395 31.0884 10.8494C32.69 14.7891 33.9181 20.4192 33.2221 24.6115C33.2121 24.6719 33.2165 24.7337 33.235 24.7921C33.504 25.6396 33.3686 26.3286 33.1066 26.6571C32.9835 26.8115 32.8372 26.8855 32.6735 26.8903C32.5009 26.8954 32.2532 26.8246 31.9418 26.5752C31.8027 26.4638 31.6055 26.4617 31.4641 26.5701C27.5077 29.6018 20.9853 31.1366 10.8104 30.5944C10.7166 30.5894 10.6242 30.6187 10.5503 30.6768C10.2118 30.9431 9.87171 31.1408 9.56987 31.2508C9.26032 31.3637 9.03696 31.3683 8.8988 31.3197C8.78948 31.2813 8.67284 31.189 8.60982 30.92C8.54245 30.6324 8.54809 30.1736 8.70665 29.4876C8.72676 29.4006 8.71619 29.3093 8.67671 29.2292C6.58219 24.9788 5.71657 19.0277 7.68861 13.1735C7.72932 13.0527 7.70794 12.9196 7.63143 12.8175C7.23865 12.2937 6.99766 11.8251 6.89655 11.4528C6.79298 11.0715 6.8529 10.8674 6.93371 10.7702C7.01337 10.6744 7.21709 10.558 7.70029 10.5997C8.17537 10.6406 8.84331 10.8311 9.7259 11.2389C9.8133 11.2793 9.9126 11.2857 10.0044 11.2568C14.9369 9.70741 22.3622 8.80968 28.5096 9.23836C28.576 9.24299 28.6426 9.23041 28.7027 9.20182C29.5306 8.80853 30.1723 8.65147 30.6282 8.64907ZM9.8366 14.5172C9.71273 14.3736 9.50309 14.3408 9.34128 14.4397C9.17946 14.5387 9.11308 14.7402 9.18443 14.9159C10.6013 18.4054 10.8227 21.3404 10.4037 26.7473C10.3888 26.9391 10.5169 27.1127 10.7046 27.1551C10.8922 27.1974 11.0825 27.0956 11.1514 26.916C12.112 24.4133 12.6099 22.2598 12.4467 20.2498C12.2824 18.2269 11.4523 16.3905 9.8366 14.5172Z" fill="#FFFDF9" stroke="#1D2A2C" stroke-width="0.774648" stroke-linejoin="round"/>
</svg>
