<svg width="16" height="16" viewBox="0 0 16 16" fill="none" xmlns="http://www.w3.org/2000/svg">
<g id="Star" clip-path="url(#clip0_1_6402)">
<g id="Group">
<path id="Vector" d="M10.1508 5.36215L10.2617 5.55249L10.477 5.59913L14.0953 6.38307C14.0954 6.38308 14.0954 6.38308 14.0954 6.38309C14.1523 6.39548 14.205 6.42255 14.2482 6.46161C14.2914 6.5007 14.3236 6.55043 14.3416 6.60585C14.3596 6.66127 14.3627 6.72043 14.3507 6.77745C14.3387 6.8344 14.3121 6.88722 14.2733 6.93066C14.2733 6.93067 14.2733 6.93068 14.2733 6.9307C14.2733 6.93073 14.2732 6.93076 14.2732 6.9308L11.8067 9.69133L11.6598 9.85565L11.6821 10.0749L12.0554 13.7582L12.0554 13.7583C12.0613 13.8163 12.0519 13.8749 12.028 13.9281C12.0042 13.9813 11.9669 14.0274 11.9197 14.0617C11.8725 14.0959 11.8172 14.1172 11.7592 14.1234C11.7012 14.1296 11.6426 14.1205 11.5893 14.097L11.5892 14.0969L8.20117 12.6036L7.9995 12.5147L7.79784 12.6036L4.40984 14.0969L4.40975 14.097C4.35639 14.1205 4.2978 14.1296 4.23981 14.1234C4.18183 14.1172 4.12648 14.0959 4.07931 14.0617C4.03213 14.0274 3.99477 13.9813 3.97096 13.9281C3.94715 13.8749 3.93772 13.8163 3.94361 13.7583L3.94362 13.7582L4.31695 10.0749L4.33918 9.85562L4.19231 9.69128L1.72564 6.93128L1.72551 6.93113C1.68664 6.88767 1.65984 6.83478 1.64781 6.77772C1.63577 6.72067 1.63891 6.66146 1.65691 6.606C1.67491 6.55054 1.70714 6.50077 1.75039 6.46166C1.79364 6.42256 1.84639 6.39548 1.90338 6.38313L5.52204 5.59913L5.73733 5.55249L5.84821 5.36215L7.7115 2.16355C7.71152 2.16353 7.71153 2.1635 7.71154 2.16348C7.74089 2.11315 7.78291 2.0714 7.83342 2.04237C7.88395 2.01333 7.94122 1.99805 7.9995 1.99805C8.05779 1.99805 8.11505 2.01333 8.16559 2.04237C8.2161 2.0714 8.25812 2.11315 8.28746 2.16348C8.28748 2.1635 8.28749 2.16353 8.2875 2.16355L10.1508 5.36215Z" stroke="#FBF8F0"/>
</g>
</g>
<defs>
<clipPath id="clip0_1_6402">
<rect width="16" height="16" fill="white"/>
</clipPath>
</defs>
</svg>
