<svg width="19" height="20" viewBox="0 0 19 20" fill="none" xmlns="http://www.w3.org/2000/svg">
<g id="Google logo">
<g clip-path="url(#clip0_58_20725)">
<path id="Vector" d="M18.174 10.2378C18.174 9.45893 18.1121 8.89056 17.9782 8.30115H9.27246V11.8166H14.3825C14.2796 12.6902 13.7232 14.0059 12.4869 14.89L12.4695 15.0077L15.2221 17.1862L15.4128 17.2056C17.1643 15.5531 18.174 13.1217 18.174 10.2378Z" fill="#4285F4"/>
<path id="Vector_2" d="M9.27238 19.5002C11.7759 19.5002 13.8776 18.6581 15.4128 17.2057L12.4868 14.89C11.7038 15.4479 10.6529 15.8373 9.27238 15.8373C6.82036 15.8373 4.73924 14.1849 3.99738 11.9009L3.88864 11.9103L1.02644 14.1733L0.989014 14.2796C2.51379 17.374 5.64581 19.5002 9.27238 19.5002Z" fill="#34A853"/>
<path id="Vector_3" d="M3.9974 11.9009C3.80165 11.3115 3.68836 10.6799 3.68836 10.0274C3.68836 9.37477 3.80165 8.74327 3.9871 8.15385L3.98191 8.02832L1.08385 5.729L0.989033 5.77508C0.360597 7.0592 0 8.5012 0 10.0274C0 11.5536 0.360597 12.9955 0.989033 14.2796L3.9974 11.9009Z" fill="#FBBC05"/>
<path id="Vector_4" d="M9.27238 4.21726C11.0135 4.21726 12.188 4.98561 12.8577 5.6277L15.4746 3.01739C13.8674 1.49121 11.7759 0.554443 9.27238 0.554443C5.64581 0.554443 2.51379 2.68056 0.989014 5.775L3.98708 8.15377C4.73924 5.86977 6.82036 4.21726 9.27238 4.21726Z" fill="#EB4335"/>
</g>
</g>
<defs>
<clipPath id="clip0_58_20725">
<rect y="0.527344" width="18.1739" height="19" rx="9.08696" fill="white"/>
</clipPath>
</defs>
</svg>
