<svg width="40" height="40" viewBox="0 0 40 40" fill="none" xmlns="http://www.w3.org/2000/svg">
<path d="M30.0917 30.3155C29.6178 30.8128 28.8963 30.9774 28.1568 30.2728C27.4174 29.5681 27.0356 28.3521 27.5095 27.8547C27.9834 27.3574 29.2146 27.6797 29.9553 28.3855C30.696 29.0913 30.5656 29.8182 30.0917 30.3155ZM18.5912 19.4234C17.4438 20.6274 17.0517 22.1163 18.1427 23.1559L27.4235 31.9998C28.5138 33.0388 29.9839 32.5773 31.1312 31.3732C32.2786 30.1692 32.6676 28.6799 31.5773 27.6408L22.2965 18.7969C21.2055 17.7573 19.7385 18.2194 18.5912 19.4234Z" fill="#FFFDF9" stroke="#1D2A2C" stroke-width="0.774648"/>
<path d="M17.7258 20.688L16.1758 19.2109C16.5919 18.9462 16.9848 18.618 17.348 18.2369C17.7112 17.8557 18.0189 17.4487 18.2627 17.0209L19.8121 18.4974C19.3873 18.7056 18.9719 19.0228 18.5916 19.4219C18.2113 19.821 17.9138 20.2519 17.7251 20.6874" fill="#FFFDF9"/>
<path d="M17.7258 20.688L16.1758 19.2109C16.5919 18.9462 16.9848 18.618 17.348 18.2369C17.7112 17.8557 18.0189 17.4487 18.2627 17.0209L19.8121 18.4974C19.3873 18.7056 18.9719 19.0228 18.5916 19.4219C18.2113 19.821 17.9138 20.2519 17.7251 20.6874" stroke="#1D2A2C" stroke-width="0.774648"/>
<path d="M17.3482 18.2382C16.985 18.6193 16.5921 18.9463 16.176 19.2122C14.3266 20.3897 12.0232 20.333 9.86227 18.2737C8.30488 16.7896 7.29762 14.7159 7.13035 12.8343L9.86706 15.4422C10.2797 15.8355 10.9324 15.8197 11.3257 15.4071C11.7189 14.9944 11.7032 14.3417 11.2905 13.9485L8.30484 11.1033C7.54375 10.3781 7.86321 9.70883 8.11753 9.44195C8.37184 9.17507 9.09847 8.89621 9.78666 9.55201L12.7705 12.3954C13.1832 12.7886 13.8358 12.7729 14.2291 12.3602C14.6223 11.9476 14.6066 11.2949 14.1939 10.9016L11.4572 8.29373C13.3429 8.37081 15.4663 9.2757 17.0231 10.7592C19.1847 12.819 19.3518 15.1189 18.2635 17.0228C18.0191 17.45 17.7115 17.8582 17.3488 18.2388" fill="#FFFDF9"/>
<path d="M17.3482 18.2382C16.985 18.6193 16.5921 18.9463 16.176 19.2122C14.3266 20.3897 12.0232 20.333 9.86227 18.2737C8.30488 16.7896 7.29762 14.7159 7.13035 12.8343L9.86706 15.4422C10.2797 15.8355 10.9324 15.8197 11.3257 15.4071C11.7189 14.9944 11.7032 14.3417 11.2905 13.9485L8.30484 11.1033C7.54375 10.3781 7.86321 9.70883 8.11753 9.44195C8.37184 9.17507 9.09847 8.89621 9.78666 9.55201L12.7705 12.3954C13.1832 12.7886 13.8358 12.7729 14.2291 12.3602C14.6223 11.9476 14.6066 11.2949 14.1939 10.9016L11.4572 8.29373C13.3429 8.3708 15.4663 9.2757 17.0231 10.7592C19.1847 12.819 19.3518 15.1189 18.2635 17.0228C18.0191 17.45 17.7115 17.8582 17.3488 18.2388" stroke="#1D2A2C" stroke-width="0.774648"/>
<path d="M12.4158 30.6388C11.9089 30.1753 11.73 29.4579 12.4192 28.704C13.1084 27.9502 14.3164 27.5433 14.8227 28.0063C15.3291 28.4692 15.033 29.7074 14.3426 30.4625C13.6522 31.2177 12.9216 31.1012 12.4158 30.6388ZM23.104 18.9486C21.8766 17.8264 20.3793 17.4646 19.3624 18.5768L10.712 28.0381C9.69575 29.1497 10.1876 30.6099 11.4157 31.7328C12.6437 32.8556 14.1402 33.2132 15.1565 32.1016L23.8069 22.6403C24.8238 21.5281 24.3296 20.0692 23.104 18.9486Z" fill="#FFFDF9" stroke="#1D2A2C" stroke-width="0.774648"/>
<path d="M20.2692 22.9921L20.0507 22.3444L19.3857 22.1844L19.9434 21.7444L19.9207 21.0519L20.4841 21.4294L21.1344 21.1591L20.925 21.8325L21.3499 22.3587L20.6582 22.398L20.2692 22.9921Z" fill="#1D2A2C"/>
<path d="M24.0535 20.1507C23.836 19.7298 23.5102 19.3209 23.1034 18.949C22.6965 18.577 22.2596 18.2885 21.8209 18.1094L23.2656 16.5293C23.5389 16.9399 23.8745 17.3253 24.2631 17.6806C24.6516 18.0359 25.0655 18.3344 25.4982 18.5705L24.0535 20.1507Z" fill="#FFFDF9" stroke="#1D2A2C" stroke-width="0.774648"/>
<path d="M24.2637 17.68C23.8752 17.3247 23.5402 16.9387 23.2663 16.5287C22.0509 14.7041 22.0594 12.3994 24.0736 10.1964C26.5404 7.49835 30.752 6.33551 32.8675 8.26966C34.9823 10.2032 34.2005 14.5007 31.7331 17.1994C29.7184 19.403 27.4243 19.6181 25.4989 18.57C25.0662 18.3351 24.6517 18.0347 24.2637 17.68Z" fill="#FFFDF9" stroke="#1D2A2C" stroke-width="0.774648"/>
<path d="M24.7941 17.1579C23.3618 15.8484 22.8512 13.8286 24.7991 11.698C26.7471 9.56744 30.1577 8.41671 31.5893 9.72563C33.0209 11.0345 32.1789 14.5325 30.2304 16.6638C28.2819 18.795 26.2251 18.4662 24.7941 17.1579Z" fill="#FFFDF9" stroke="#1D2A2C" stroke-width="0.774648"/>
</svg>
