<svg width="40" height="40" viewBox="0 0 40 40" fill="none" xmlns="http://www.w3.org/2000/svg">
<path d="M19.4733 13.6836C19.3711 13.6836 19.271 13.7133 19.1853 13.7692C19.0997 13.8251 19.0322 13.9048 18.9911 13.9985C18.9352 14.1259 19.0016 14.2659 19.1006 14.3639L19.6271 14.8904C19.676 14.9394 19.7341 14.9783 19.7981 15.0049C19.862 15.0314 19.9306 15.0451 19.9999 15.0451C20.0691 15.0451 20.1377 15.0314 20.2017 15.0049C20.2656 14.9783 20.3237 14.9394 20.3726 14.8904L20.8992 14.3639C20.9971 14.2659 21.0645 14.1259 21.0087 13.9985C20.9676 13.9048 20.9001 13.8251 20.8144 13.7692C20.7288 13.7133 20.6287 13.6836 20.5264 13.6836H19.4733Z" fill="black"/>
<path d="M13.1076 9.47916C12.8064 9.05057 12.6295 8.52827 12.6295 7.96489C12.6296 7.41448 12.8023 6.87796 13.1231 6.43074C13.444 5.98353 13.8969 5.64814 14.4183 5.47171C14.9397 5.29529 15.5032 5.28672 16.0297 5.4472C16.5562 5.60768 17.0191 5.92914 17.3535 6.36638C18.2443 6.03678 19.151 5.85882 20.0008 5.85882C20.8506 5.85882 21.7573 6.03678 22.6481 6.36638C23.065 5.81437 23.6824 5.44862 24.3668 5.34821C25.0512 5.24779 25.7476 5.42079 26.3055 5.82978C26.8634 6.23877 27.2378 6.8509 27.348 7.53381C27.4581 8.21672 27.295 8.91554 26.894 9.47916C27.828 10.707 28.4251 12.1918 28.4251 13.8429C28.4251 16.0743 27.5574 17.6002 26.1421 18.5806L33.1795 22.8748C33.8775 23.2983 34.3844 23.9755 34.594 24.7645C34.8037 25.5534 34.6998 26.3929 34.3041 27.107C33.9084 27.821 33.2516 28.3541 32.4715 28.5946C31.6914 28.8351 30.8485 28.7643 30.1194 28.397C30.3677 28.9879 30.4575 29.6333 30.3799 30.2695C30.3023 30.9058 30.0601 31.5107 29.6771 32.0247L28.7336 33.2915C28.3901 33.7532 27.9433 34.128 27.4289 34.386C26.9145 34.6439 26.3469 34.7779 25.7714 34.7771C25.196 34.7762 24.6287 34.6407 24.1151 34.3812C23.6014 34.1218 23.1556 33.7457 22.8135 33.2831C21.9342 33.5958 20.9875 33.7643 20.0008 33.7643C19.0461 33.7656 18.0982 33.6042 17.1976 33.2873C16.855 33.7493 16.4091 34.1247 15.8955 34.3835C15.3819 34.6423 14.8148 34.7773 14.2396 34.7777C13.6645 34.7781 13.0972 34.6439 12.5832 34.3859C12.0692 34.1278 11.6228 33.753 11.2795 33.2915L10.3371 32.0247C9.95491 31.5118 9.71287 30.9083 9.63477 30.2735M15.2621 6.38534C15.6791 6.38534 16.0582 6.5475 16.3404 6.81076C15.4124 7.28273 14.5663 7.90066 13.8342 8.64094C13.7202 8.40016 13.6689 8.13445 13.6852 7.86853C13.7014 7.60261 13.7847 7.34512 13.9272 7.12001C14.0697 6.89491 14.2668 6.70951 14.5002 6.58106C14.7336 6.45261 14.9957 6.38528 15.2621 6.38534ZM25.266 26.4373C24.6693 26.6927 24.1512 27.1018 23.7643 27.623L22.8208 28.8898C22.3184 29.5626 22.062 30.3874 22.0942 31.2265C21.4519 31.5045 20.7442 31.6582 20.0008 31.6582C19.2616 31.6582 18.5581 31.5066 17.92 31.2317C17.9534 30.3909 17.6969 29.5641 17.1934 28.8898L16.2499 27.623C15.8603 27.0981 15.3375 26.687 14.7356 26.432V26.393C14.7356 24.9966 15.2903 23.6574 16.2777 22.67C17.2652 21.6826 18.6044 21.1279 20.0008 21.1279C21.3972 21.1279 22.7364 21.6826 23.7238 22.67C24.7113 23.6574 25.266 24.9966 25.266 26.393V26.4373ZM26.319 7.96489C26.319 8.20709 26.2643 8.43665 26.1674 8.64094C25.4353 7.90066 24.5891 7.28273 23.6611 6.81076C23.8861 6.60062 24.1675 6.46078 24.4709 6.40844C24.7742 6.3561 25.0862 6.39353 25.3686 6.51614C25.651 6.63874 25.8913 6.84118 26.0602 7.09857C26.229 7.35595 26.319 7.65706 26.319 7.96489ZM17.3682 12.6298C17.2286 12.6298 17.0946 12.5744 16.9959 12.4756C16.8972 12.3769 16.8417 12.243 16.8417 12.1033C16.8417 11.9637 16.8972 11.8298 16.9959 11.731C17.0946 11.6323 17.2286 11.5768 17.3682 11.5768C17.5078 11.5768 17.6418 11.6323 17.7405 11.731C17.8392 11.8298 17.8947 11.9637 17.8947 12.1033C17.8947 12.243 17.8392 12.3769 17.7405 12.4756C17.6418 12.5744 17.5078 12.6298 17.3682 12.6298ZM20.0008 18.4215C17.9653 18.4215 16.3152 16.7156 16.3152 15.2624C16.3152 13.8092 17.9653 12.6298 20.0008 12.6298C22.0363 12.6298 23.6864 13.8092 23.6864 15.2624C23.6864 16.7156 22.0363 18.4215 20.0008 18.4215ZM23.1599 12.1033C23.1599 12.243 23.1044 12.3769 23.0057 12.4756C22.9069 12.5744 22.773 12.6298 22.6334 12.6298C22.4937 12.6298 22.3598 12.5744 22.2611 12.4756C22.1623 12.3769 22.1069 12.243 22.1069 12.1033C22.1069 11.9637 22.1623 11.8298 22.2611 11.731C22.3598 11.6323 22.4937 11.5768 22.6334 11.5768C22.773 11.5768 22.9069 11.6323 23.0057 11.731C23.1044 11.8298 23.1599 11.9637 23.1599 12.1033ZM15.0136 28.5834L15.9571 29.8512C16.1223 30.0731 16.2422 30.3253 16.3099 30.5935C16.3776 30.8617 16.3918 31.1407 16.3517 31.4143C16.3116 31.688 16.218 31.9512 16.0762 32.1887C15.9344 32.4262 15.7473 32.6335 15.5254 32.7987C15.3035 32.9638 15.0513 33.0837 14.7831 33.1514C14.5149 33.2191 14.2359 33.2333 13.9622 33.1932C13.6885 33.1531 13.4254 33.0595 13.1879 32.9177C12.9504 32.776 12.7431 32.5888 12.5779 32.3669L11.6344 31.0991C11.301 30.6509 11.1592 30.0887 11.2402 29.5361C11.3213 28.9834 11.6186 28.4856 12.0667 28.1521C12.5148 27.8187 13.077 27.6769 13.6297 27.7579C14.1823 27.839 14.6801 28.1352 15.0136 28.5834ZM25.0006 28.5834C25.1659 28.3615 25.3732 28.1744 25.6107 28.0328C25.8483 27.8911 26.1114 27.7976 26.3851 27.7576C26.6588 27.7176 26.9377 27.7319 27.2059 27.7997C27.4741 27.8675 27.7263 27.9874 27.9481 28.1527C28.1699 28.3179 28.357 28.5252 28.4987 28.7628C28.6403 29.0004 28.7339 29.2635 28.7738 29.5372C28.8138 29.8109 28.7995 30.0898 28.7317 30.3579C28.664 30.6261 28.544 30.8783 28.3788 31.1001L27.4363 32.3669C27.2711 32.5888 27.0638 32.776 26.8263 32.9177C26.5888 33.0595 26.3257 33.1531 26.052 33.1932C25.7783 33.2333 25.4994 33.2191 25.2312 33.1514C24.963 33.0837 24.7107 32.9638 24.4888 32.7987C24.267 32.6335 24.0798 32.4262 23.938 32.1887C23.7962 31.9512 23.7026 31.688 23.6625 31.4143C23.6224 31.1407 23.6366 30.8617 23.7043 30.5935C23.772 30.3253 23.8919 30.0731 24.0571 29.8512L25.0006 28.5834Z" stroke="#1D2A2C" stroke-width="0.774648"/>
<path d="M12.6295 7.96489C12.6295 8.52827 12.8064 9.05057 13.1076 9.47916C12.1735 10.707 11.5765 12.1918 11.5765 13.8429C11.5765 16.1765 12.5252 17.7371 14.0585 18.7132L6.941 22.8222C6.23242 23.2306 5.70984 23.8978 5.48315 24.6836C5.25647 25.4694 5.34336 26.3125 5.72555 27.0355C6.10773 27.7586 6.75543 28.3052 7.5324 28.5605C8.30937 28.8158 9.15506 28.7598 9.8916 28.4043C9.64516 28.9945 9.55663 29.6387 9.63473 30.2735C9.71283 30.9083 9.95488 31.5118 10.337 32.0247L11.2795 33.2915C11.6227 33.753 12.0692 34.1278 12.5832 34.3859C13.0972 34.6439 13.6645 34.7781 14.2396 34.7777C14.8148 34.7773 15.3818 34.6423 15.8955 34.3835C16.4091 34.1247 16.855 33.7493 17.1976 33.2873C18.0981 33.6042 19.0461 33.7656 20.0008 33.7643C20.9875 33.7643 21.9341 33.5958 22.8134 33.2831C23.1556 33.7457 23.6014 34.1218 24.115 34.3812C24.6287 34.6407 25.1959 34.7762 25.7714 34.777C26.3468 34.7779 26.9145 34.6439 27.4289 34.386C27.9433 34.128 28.3901 33.7532 28.7336 33.2915L29.6771 32.0247C30.0601 31.5107 30.3023 30.9058 30.3799 30.2695C30.4574 29.6333 30.3677 28.9879 30.1194 28.397C30.8484 28.7643 31.6914 28.8351 32.4715 28.5946C33.2516 28.3541 33.9083 27.821 34.304 27.107C34.6997 26.3929 34.8036 25.5534 34.594 24.7645C34.3844 23.9755 33.8775 23.2983 33.1795 22.8748L26.1421 18.5806C27.5574 17.6002 28.4251 16.0743 28.4251 13.8429C28.4251 12.1918 27.828 10.707 26.8939 9.47916C27.295 8.91554 27.4581 8.21672 27.3479 7.53381C27.2378 6.8509 26.8633 6.23877 26.3055 5.82978C25.7476 5.42079 25.0512 5.24779 24.3668 5.34821C23.6824 5.44862 23.065 5.81437 22.6481 6.36638C21.7572 6.03678 20.8506 5.85882 20.0008 5.85882C19.151 5.85882 18.2443 6.03678 17.3534 6.36638C17.0191 5.92914 16.5562 5.60768 16.0297 5.4472C15.5032 5.28672 14.9396 5.29529 14.4183 5.47171C13.8969 5.64814 13.4439 5.98353 13.1231 6.43074C12.8022 6.87796 12.6296 7.41448 12.6295 7.96489ZM15.2621 6.38534C15.6791 6.38534 16.0582 6.5475 16.3404 6.81076C15.4124 7.28273 14.5662 7.90066 13.8342 8.64094C13.7201 8.40016 13.6689 8.13445 13.6851 7.86853C13.7014 7.60261 13.7846 7.34512 13.9271 7.12001C14.0696 6.89491 14.2668 6.70951 14.5002 6.58106C14.7336 6.45261 14.9957 6.38528 15.2621 6.38534ZM25.2659 26.4373C24.6693 26.6927 24.1511 27.1018 23.7643 27.623L22.8208 28.8898C22.3184 29.5626 22.0619 30.3874 22.0942 31.2265C21.4518 31.5045 20.7442 31.6582 20.0008 31.6582C19.2615 31.6582 18.5581 31.5066 17.92 31.2317C17.9534 30.3909 17.6968 29.5641 17.1934 28.8898L16.2498 27.623C15.8602 27.0981 15.3374 26.687 14.7356 26.432V26.393C14.7356 24.9966 15.2903 23.6574 16.2777 22.67C17.2651 21.6826 18.6043 21.1279 20.0008 21.1279C21.3972 21.1279 22.7364 21.6826 23.7238 22.67C24.7112 23.6574 25.2659 24.9966 25.2659 26.393V26.4373ZM26.319 7.96489C26.319 8.20709 26.2642 8.43665 26.1673 8.64094C25.4353 7.90066 24.5891 7.28273 23.6611 6.81076C23.8861 6.60062 24.1675 6.46078 24.4708 6.40844C24.7742 6.3561 25.0862 6.39353 25.3686 6.51614C25.6509 6.63874 25.8913 6.84118 26.0601 7.09857C26.229 7.35595 26.319 7.65706 26.319 7.96489ZM17.3682 12.6298C17.2285 12.6298 17.0946 12.5744 16.9959 12.4756C16.8971 12.3769 16.8416 12.243 16.8416 12.1033C16.8416 11.9637 16.8971 11.8298 16.9959 11.731C17.0946 11.6323 17.2285 11.5768 17.3682 11.5768C17.5078 11.5768 17.6417 11.6323 17.7405 11.731C17.8392 11.8298 17.8947 11.9637 17.8947 12.1033C17.8947 12.243 17.8392 12.3769 17.7405 12.4756C17.6417 12.5744 17.5078 12.6298 17.3682 12.6298ZM20.0008 18.4215C17.9652 18.4215 16.3151 16.7156 16.3151 15.2624C16.3151 13.8092 17.9652 12.6298 20.0008 12.6298C22.0363 12.6298 23.6864 13.8092 23.6864 15.2624C23.6864 16.7156 22.0363 18.4215 20.0008 18.4215ZM23.1599 12.1033C23.1599 12.243 23.1044 12.3769 23.0057 12.4756C22.9069 12.5744 22.773 12.6298 22.6334 12.6298C22.4937 12.6298 22.3598 12.5744 22.261 12.4756C22.1623 12.3769 22.1068 12.243 22.1068 12.1033C22.1068 11.9637 22.1623 11.8298 22.261 11.731C22.3598 11.6323 22.4937 11.5768 22.6334 11.5768C22.773 11.5768 22.9069 11.6323 23.0057 11.731C23.1044 11.8298 23.1599 11.9637 23.1599 12.1033ZM15.0136 28.5834L15.9571 29.8512C16.1223 30.0731 16.2421 30.3253 16.3098 30.5935C16.3775 30.8617 16.3918 31.1407 16.3517 31.4143C16.3116 31.688 16.218 31.9512 16.0762 32.1887C15.9344 32.4262 15.7472 32.6335 15.5254 32.7987C15.3035 32.9638 15.0512 33.0837 14.783 33.1514C14.5148 33.2191 14.2359 33.2333 13.9622 33.1932C13.6885 33.1531 13.4254 33.0595 13.1879 32.9177C12.9504 32.776 12.7431 32.5888 12.5779 32.3669L11.6344 31.0991C11.3009 30.6509 11.1591 30.0887 11.2402 29.5361C11.3213 28.9834 11.6185 28.4856 12.0667 28.1521C12.5148 27.8187 13.077 27.6769 13.6296 27.7579C14.1823 27.839 14.6801 28.1352 15.0136 28.5834ZM25.0006 28.5834C25.1658 28.3615 25.3732 28.1744 25.6107 28.0328C25.8483 27.8911 26.1114 27.7976 26.3851 27.7576C26.6588 27.7176 26.9377 27.7319 27.2059 27.7997C27.474 27.8675 27.7262 27.9874 27.948 28.1527C28.1698 28.3179 28.3569 28.5252 28.4986 28.7628C28.6403 29.0004 28.7338 29.2635 28.7738 29.5372C28.8138 29.8109 28.7995 30.0898 28.7317 30.3579C28.6639 30.6261 28.544 30.8783 28.3787 31.1001L27.4363 32.3669C27.2711 32.5888 27.0638 32.776 26.8263 32.9177C26.5888 33.0595 26.3256 33.1531 26.0519 33.1932C25.7782 33.2333 25.4993 33.2191 25.2311 33.1514C24.9629 33.0837 24.7107 32.9638 24.4888 32.7987C24.2669 32.6335 24.0798 32.4262 23.938 32.1887C23.7962 31.9512 23.7026 31.688 23.6625 31.4143C23.6224 31.1407 23.6366 30.8617 23.7043 30.5935C23.772 30.3253 23.8919 30.0731 24.0571 29.8512L25.0006 28.5834Z" stroke="#1D2A2C" stroke-width="0.774648" stroke-dasharray="1.55 1.55"/>
</svg>
