<svg width="15" height="14" viewBox="0 0 15 14" fill="none" xmlns="http://www.w3.org/2000/svg">
<g id="Group">
<path id="Vector" d="M11.1667 8.16671C11.3435 8.16671 11.5131 8.09647 11.6381 7.97145C11.7631 7.84642 11.8333 7.67685 11.8333 7.50004C11.8333 7.32323 11.7631 7.15366 11.6381 7.02864C11.5131 6.90361 11.3435 6.83337 11.1667 6.83337C10.9899 6.83337 10.8203 6.90361 10.6953 7.02864C10.5702 7.15366 10.5 7.32323 10.5 7.50004C10.5 7.67685 10.5702 7.84642 10.6953 7.97145C10.8203 8.09647 10.9899 8.16671 11.1667 8.16671ZM11.1667 10.8334C11.3435 10.8334 11.5131 10.7631 11.6381 10.6381C11.7631 10.5131 11.8333 10.3435 11.8333 10.1667C11.8333 9.9899 11.7631 9.82033 11.6381 9.6953C11.5131 9.57028 11.3435 9.50004 11.1667 9.50004C10.9899 9.50004 10.8203 9.57028 10.6953 9.6953C10.5702 9.82033 10.5 9.9899 10.5 10.1667C10.5 10.3435 10.5702 10.5131 10.6953 10.6381C10.8203 10.7631 10.9899 10.8334 11.1667 10.8334ZM8.5 7.50004C8.5 7.67685 8.42976 7.84642 8.30474 7.97145C8.17972 8.09647 8.01015 8.16671 7.83334 8.16671C7.65652 8.16671 7.48696 8.09647 7.36193 7.97145C7.23691 7.84642 7.16667 7.67685 7.16667 7.50004C7.16667 7.32323 7.23691 7.15366 7.36193 7.02864C7.48696 6.90361 7.65652 6.83337 7.83334 6.83337C8.01015 6.83337 8.17972 6.90361 8.30474 7.02864C8.42976 7.15366 8.5 7.32323 8.5 7.50004ZM8.5 10.1667C8.5 10.3435 8.42976 10.5131 8.30474 10.6381C8.17972 10.7631 8.01015 10.8334 7.83334 10.8334C7.65652 10.8334 7.48696 10.7631 7.36193 10.6381C7.23691 10.5131 7.16667 10.3435 7.16667 10.1667C7.16667 9.9899 7.23691 9.82033 7.36193 9.6953C7.48696 9.57028 7.65652 9.50004 7.83334 9.50004C8.01015 9.50004 8.17972 9.57028 8.30474 9.6953C8.42976 9.82033 8.5 9.9899 8.5 10.1667ZM4.5 8.16671C4.67681 8.16671 4.84638 8.09647 4.97141 7.97145C5.09643 7.84642 5.16667 7.67685 5.16667 7.50004C5.16667 7.32323 5.09643 7.15366 4.97141 7.02864C4.84638 6.90361 4.67681 6.83337 4.5 6.83337C4.32319 6.83337 4.15362 6.90361 4.0286 7.02864C3.90357 7.15366 3.83334 7.32323 3.83334 7.50004C3.83334 7.67685 3.90357 7.84642 4.0286 7.97145C4.15362 8.09647 4.32319 8.16671 4.5 8.16671ZM4.5 10.8334C4.67681 10.8334 4.84638 10.7631 4.97141 10.6381C5.09643 10.5131 5.16667 10.3435 5.16667 10.1667C5.16667 9.9899 5.09643 9.82033 4.97141 9.6953C4.84638 9.57028 4.67681 9.50004 4.5 9.50004C4.32319 9.50004 4.15362 9.57028 4.0286 9.6953C3.90357 9.82033 3.83334 9.9899 3.83334 10.1667C3.83334 10.3435 3.90357 10.5131 4.0286 10.6381C4.15362 10.7631 4.32319 10.8334 4.5 10.8334Z" fill="black"/>
<path id="Vector_2" fill-rule="evenodd" clip-rule="evenodd" d="M4.50001 0C4.63261 0 4.75979 0.0526784 4.85356 0.146447C4.94733 0.240215 5.00001 0.367392 5.00001 0.5V1.00867C5.44134 1 5.92734 1 6.46201 1H9.20401C9.73934 1 10.2253 1 10.6667 1.00867V0.5C10.6667 0.367392 10.7193 0.240215 10.8131 0.146447C10.9069 0.0526784 11.0341 0 11.1667 0C11.2993 0 11.4265 0.0526784 11.5202 0.146447C11.614 0.240215 11.6667 0.367392 11.6667 0.5V1.05133C11.84 1.06467 12.004 1.08133 12.1593 1.102C12.9407 1.20733 13.5733 1.42867 14.0727 1.92733C14.5713 2.42667 14.7927 3.05933 14.898 3.84067C15 4.60067 15 5.57067 15 6.796V8.204C15 9.42933 15 10.4 14.898 11.1593C14.7927 11.9407 14.5713 12.5733 14.0727 13.0727C13.5733 13.5713 12.9407 13.7927 12.1593 13.898C11.3993 14 10.4293 14 9.20401 14H6.46267C5.23734 14 4.26667 14 3.50734 13.898C2.72601 13.7927 2.09334 13.5713 1.59401 13.0727C1.09534 12.5733 0.874005 11.9407 0.768672 11.1593C0.666672 10.3993 0.666672 9.42933 0.666672 8.204V6.796C0.666672 5.57067 0.666672 4.6 0.768672 3.84067C0.874005 3.05933 1.09534 2.42667 1.59401 1.92733C2.09334 1.42867 2.72601 1.20733 3.50734 1.102C3.66267 1.08133 3.82734 1.06467 4.00001 1.05133V0.5C4.00001 0.367392 4.05268 0.240215 4.14645 0.146447C4.24022 0.0526784 4.3674 0 4.50001 0ZM3.64001 2.09333C2.97001 2.18333 2.58334 2.35267 2.30134 2.63467C2.01934 2.91667 1.85001 3.30333 1.76001 3.974C1.74467 4.08733 1.73201 4.20733 1.72134 4.33333H13.9453C13.9347 4.20667 13.922 4.08733 13.9067 3.97333C13.8167 3.30333 13.6473 2.91667 13.3653 2.63467C13.0833 2.35267 12.6967 2.18333 12.026 2.09333C11.3413 2.00133 10.438 2 9.16667 2H6.50001C5.22867 2 4.32601 2.00133 3.64001 2.09333ZM1.66667 6.83333C1.66667 6.264 1.66667 5.76867 1.67534 5.33333H13.9913C14 5.76867 14 6.264 14 6.83333V8.16667C14 9.438 13.9987 10.3413 13.9067 11.0267C13.8167 11.6967 13.6473 12.0833 13.3653 12.3653C13.0833 12.6473 12.6967 12.8167 12.026 12.9067C11.3413 12.9987 10.438 13 9.16667 13H6.50001C5.22867 13 4.32601 12.9987 3.64001 12.9067C2.97001 12.8167 2.58334 12.6473 2.30134 12.3653C2.01934 12.0833 1.85001 11.6967 1.76001 11.026C1.66801 10.3413 1.66667 9.438 1.66667 8.16667V6.83333Z" fill="black"/>
</g>
</svg>
