<svg width="40" height="40" viewBox="0 0 40 40" fill="none" xmlns="http://www.w3.org/2000/svg">
<path d="M8.56701 20.7568C8.66863 20.8502 8.77796 20.9401 8.8936 21.0264C9.55084 21.5168 10.4772 21.9421 11.5872 22.2925C13.8118 22.9947 16.8612 23.4231 20.2126 23.4231C23.564 23.4231 26.6138 22.9947 28.8388 22.2925C29.949 21.9421 30.8757 21.5168 31.5331 21.0264C31.6488 20.9401 31.7583 20.8501 31.86 20.7566V29.8482C31.86 30.1941 31.6374 30.5932 31.0696 31.0169C30.5088 31.4354 29.6728 31.8286 28.605 32.1656C26.4739 32.8382 23.5064 33.2602 20.2126 33.2602C16.9188 33.2602 13.9517 32.8382 11.8211 32.1656C10.7536 31.8286 9.91775 31.4354 9.35716 31.017C8.78956 30.5933 8.56701 30.1942 8.56701 29.8482V20.7568Z" fill="#FFFDF9" stroke="#1D2A2C" stroke-width="0.774648" stroke-linejoin="round"/>
<path d="M8.55529 31.9677C8.65691 32.0612 8.76625 32.1511 8.88188 32.2374C9.53912 32.7277 10.4655 33.153 11.5755 33.5034C13.8001 34.2056 16.8495 34.634 20.2009 34.634C23.5523 34.634 26.6021 34.2056 28.8271 33.5034C29.9373 33.153 30.8639 32.7277 31.5213 32.2374C31.6371 32.151 31.7465 32.0611 31.8483 31.9675V32.8596C31.8483 33.2055 31.6257 33.6046 31.0579 34.0283C30.4971 34.4468 29.661 34.84 28.5933 35.177C26.4622 35.8496 23.4947 36.2716 20.2009 36.2716C16.9071 36.2716 13.94 35.8496 11.8094 35.177C10.7419 34.84 9.90603 34.4468 9.34544 34.0283C8.77785 33.6047 8.55529 33.2055 8.55529 32.8596V31.9677Z" fill="#FFFDF9" stroke="#1D2A2C" stroke-width="0.774648" stroke-linejoin="round"/>
<path d="M25.3534 15.607L25.3532 15.6072C25.2236 15.7895 24.9755 15.8291 24.7976 15.6997C24.6175 15.5687 24.5743 15.3107 24.7062 15.1252L32.6397 3.97784L32.6398 3.97764C32.7694 3.79532 33.0176 3.7557 33.1955 3.88511C33.3755 4.0161 33.4187 4.27399 33.2869 4.45953C33.2869 4.45955 33.2869 4.45958 33.2869 4.4596L25.3534 15.607Z" fill="#FFFDF9" stroke="#1D2A2C" stroke-width="0.774648" stroke-linejoin="round"/>
<mask id="path-5-inside-1_1_6851" fill="white">
<path d="M22.3674 14.9643C23.1372 13.8808 24.6322 13.635 25.7059 14.4138C26.7769 15.1954 27.0189 16.7079 26.2473 17.7906C25.4757 18.876 23.9807 19.1227 22.9097 18.3411C21.8387 17.5613 21.5949 16.0479 22.3674 14.9634"/>
</mask>
<path d="M22.3674 14.9643C23.1372 13.8808 24.6322 13.635 25.7059 14.4138C26.7769 15.1954 27.0189 16.7079 26.2473 17.7906C25.4757 18.876 23.9807 19.1227 22.9097 18.3411C21.8387 17.5613 21.5949 16.0479 22.3674 14.9634" fill="#FFFDF9"/>
<path d="M25.7059 14.4138L26.1626 13.7881L26.1607 13.7868L25.7059 14.4138ZM26.2473 17.7906L25.6165 17.341L25.616 17.3417L26.2473 17.7906ZM22.9097 18.3411L23.3664 17.7154L23.3656 17.7148L22.9097 18.3411ZM22.9989 15.413C23.5196 14.68 24.5267 14.5154 25.2511 15.0409L26.1607 13.7868C24.7377 12.7545 22.7548 13.0815 21.7359 14.5157L22.9989 15.413ZM25.2493 15.0395C25.9754 15.5695 26.1432 16.602 25.6165 17.341L26.8781 18.2402C27.8947 16.8139 27.5784 14.8213 26.1626 13.7881L25.2493 15.0395ZM25.616 17.3417C25.0924 18.0782 24.086 18.2405 23.3664 17.7154L22.453 18.9668C23.8754 20.0049 25.859 19.6738 26.8787 18.2394L25.616 17.3417ZM23.3656 17.7148C22.6402 17.1867 22.4706 16.1537 22.9983 15.4129L21.7364 14.514C20.7191 15.9421 21.0372 17.936 22.4537 18.9673L23.3656 17.7148Z" fill="#1D2A2C" mask="url(#path-5-inside-1_1_6851)"/>
<mask id="path-7-inside-2_1_6851" fill="white">
<path d="M17.3777 12.6916L7.58321 3.17906C7.26928 2.87434 6.77064 2.88447 6.46946 3.20208C6.16827 3.51968 6.17828 4.02417 6.4922 4.32889L16.2858 13.8415C16.5997 14.1462 17.0983 14.1361 17.3995 13.8184C17.7007 13.5008 17.6907 12.9964 17.3768 12.6916"/>
</mask>
<path d="M17.3777 12.6916L7.58321 3.17906C7.26928 2.87434 6.77064 2.88447 6.46946 3.20208C6.16827 3.51968 6.17828 4.02417 6.4922 4.32889L16.2858 13.8415C16.5997 14.1462 17.0983 14.1361 17.3995 13.8184C17.7007 13.5008 17.6907 12.9964 17.3768 12.6916" fill="#FFFDF9"/>
<path d="M7.58321 3.17906L8.12291 2.62336L8.12276 2.62321L7.58321 3.17906ZM6.4922 4.32889L7.03193 3.77322L7.03175 3.77304L6.4922 4.32889ZM16.2858 13.8415L15.746 14.3971L15.7462 14.3973L16.2858 13.8415ZM17.9174 12.1359L8.12291 2.62336L7.04351 3.73476L16.838 13.2473L17.9174 12.1359ZM8.12276 2.62321C7.49948 2.01821 6.50552 2.03827 5.90736 2.66904L7.03155 3.73511C7.0331 3.73348 7.03408 3.73276 7.03442 3.73252C7.0348 3.73226 7.03501 3.73216 7.03514 3.7321C7.03544 3.73197 7.03623 3.73171 7.03747 3.73168C7.03872 3.73166 7.03955 3.73189 7.0399 3.73202C7.04004 3.73208 7.04028 3.73218 7.04068 3.73244C7.04105 3.73267 7.04206 3.73335 7.04366 3.73491L8.12276 2.62321ZM5.90736 2.66904C5.31484 3.29387 5.33362 4.28386 5.95266 4.88474L7.03175 3.77304C7.02906 3.77043 7.02782 3.76836 7.02691 3.76622C7.02578 3.76355 7.02475 3.75961 7.02466 3.75477C7.02456 3.74992 7.02542 3.7458 7.02653 3.74286C7.02745 3.74043 7.02876 3.73806 7.03155 3.73511L5.90736 2.66904ZM5.95248 4.88456L15.746 14.3971L16.8255 13.2858L7.03193 3.77322L5.95248 4.88456ZM15.7462 14.3973C16.3695 15.0023 17.3635 14.9823 17.9616 14.3515L16.8374 13.2854C16.8359 13.287 16.8349 13.2878 16.8346 13.288C16.8342 13.2883 16.834 13.2884 16.8338 13.2884C16.8335 13.2886 16.8327 13.2888 16.8315 13.2888C16.8303 13.2889 16.8294 13.2886 16.8291 13.2885C16.8289 13.2884 16.8287 13.2883 16.8283 13.2881C16.8279 13.2879 16.8269 13.2872 16.8253 13.2856L15.7462 14.3973ZM17.9616 14.3515C18.5541 13.7267 18.5354 12.7367 17.9163 12.1358L16.8372 13.2475C16.8399 13.2501 16.8412 13.2522 16.8421 13.2543C16.8432 13.257 16.8442 13.2609 16.8443 13.2658C16.8444 13.2706 16.8436 13.2747 16.8424 13.2777C16.8415 13.2801 16.8402 13.2825 16.8374 13.2854L17.9616 14.3515Z" fill="#1D2A2C" mask="url(#path-7-inside-2_1_6851)"/>
<path d="M19.1085 12.6638L19.1089 12.6642C19.9089 13.4403 19.9348 14.7294 19.1667 15.5398L19.1666 15.54C18.4001 16.3493 17.134 16.3746 16.3338 15.5995C15.5352 14.8196 15.5088 13.5306 16.277 12.7232L16.2775 12.7227C17.0446 11.9134 18.3108 11.8876 19.1085 12.6638Z" fill="#FFFDF9" stroke="#1D2A2C" stroke-width="0.774648" stroke-linejoin="round"/>
<path d="M32.1551 18.2742C32.1551 18.6322 31.9246 19.043 31.3423 19.4774C30.767 19.9065 29.9099 20.3094 28.8159 20.6545C26.6324 21.3434 23.5918 21.7755 20.2156 21.7755C16.8407 21.7755 13.8006 21.344 11.6172 20.6556C10.5233 20.3106 9.66618 19.9078 9.09089 19.4786C8.50864 19.0442 8.27795 18.633 8.27795 18.2742C8.27795 17.9152 8.50861 17.5039 9.09064 17.0693C9.66573 16.6398 10.5226 16.2367 11.6163 15.8914C13.7993 15.2023 16.8394 14.7701 20.2156 14.7701C23.5917 14.7701 26.6323 15.2029 28.8158 15.8924C29.9098 16.2379 30.7669 16.6411 31.3422 17.0705C31.9246 17.5051 32.1551 17.9161 32.1551 18.2742Z" fill="#FFFDF9" stroke="#1D2A2C" stroke-width="0.774648" stroke-linejoin="round"/>
<mask id="path-11-inside-3_1_6851" fill="white">
<path d="M26.2676 14.9892C26.1184 14.7729 25.9301 14.5777 25.7062 14.4148C25.4815 14.2518 25.2394 14.134 24.9883 14.0594L32.3223 3.75329C32.4761 3.53695 32.7172 3.42188 32.962 3.42188C33.1212 3.42188 33.2823 3.47067 33.4215 3.57193C33.7746 3.82878 33.8537 4.32683 33.5998 4.68402L26.3322 14.8972L26.2658 14.9901"/>
</mask>
<path d="M26.2676 14.9892C26.1184 14.7729 25.9301 14.5777 25.7062 14.4148C25.4815 14.2518 25.2394 14.134 24.9883 14.0594L32.3223 3.75329C32.4761 3.53695 32.7172 3.42188 32.962 3.42188C33.1212 3.42188 33.2823 3.47067 33.4215 3.57193C33.7746 3.82878 33.8537 4.32683 33.5998 4.68402L26.3322 14.8972L26.2658 14.9901" fill="#FFFDF9"/>
<path d="M25.7062 14.4148L26.1621 13.7885L26.1609 13.7876L25.7062 14.4148ZM24.9883 14.0594L24.3571 13.6103C24.2121 13.8141 24.1744 14.0753 24.2559 14.3118C24.3374 14.5483 24.528 14.7308 24.7678 14.802L24.9883 14.0594ZM32.3223 3.75329L32.9535 4.20243L32.9537 4.20209L32.3223 3.75329ZM33.4215 3.57193L33.8772 2.94552L33.8772 2.94548L33.4215 3.57193ZM33.5998 4.68402L34.231 5.13315L34.2313 5.13279L33.5998 4.68402ZM26.3322 14.8972L26.9626 15.3475L26.9634 15.3463L26.3322 14.8972ZM26.9053 14.5494C26.7067 14.2614 26.4569 14.0031 26.1621 13.7885L25.2503 15.0411C25.4032 15.1523 25.5302 15.2844 25.63 15.4291L26.9053 14.5494ZM26.1609 13.7876C25.8652 13.5732 25.5439 13.4163 25.2088 13.3168L24.7678 14.802C24.9349 14.8516 25.0977 14.9304 25.2515 15.0419L26.1609 13.7876ZM25.6194 14.5086L32.9535 4.20243L31.6912 3.30415L24.3571 13.6103L25.6194 14.5086ZM32.9537 4.20209C32.9554 4.19968 32.9566 4.19862 32.957 4.19827C32.9575 4.19786 32.9579 4.1976 32.9583 4.1974C32.9593 4.19687 32.9607 4.19652 32.962 4.19652V2.64723C32.4749 2.64723 31.9949 2.87689 31.6909 3.30449L32.9537 4.20209ZM32.962 4.19652C32.9625 4.19652 32.9628 4.1966 32.9629 4.19663C32.9629 4.19665 32.9631 4.19671 32.9635 4.19689C32.9638 4.19707 32.9646 4.19749 32.9658 4.19838L33.8772 2.94548C33.6018 2.74515 33.2802 2.64723 32.962 2.64723V4.19652ZM32.9658 4.19835C32.9682 4.20007 32.9691 4.20134 32.97 4.20275C32.9711 4.20466 32.9726 4.20801 32.9733 4.21268C32.9741 4.21737 32.9739 4.22175 32.9731 4.22527C32.9724 4.22826 32.9712 4.23137 32.9684 4.23525L34.2313 5.13279C34.7282 4.43361 34.5775 3.45498 33.8772 2.94552L32.9658 4.19835ZM32.9687 4.23489L25.7011 14.448L26.9634 15.3463L34.231 5.13315L32.9687 4.23489ZM25.7019 14.4469L25.6355 14.5398L26.8961 15.4405L26.9626 15.3475L25.7019 14.4469Z" fill="#1D2A2C" mask="url(#path-11-inside-3_1_6851)"/>
<mask id="path-13-inside-4_1_6851" fill="white">
<path d="M24.3046 18.7977C23.8205 18.7977 23.3328 18.6494 22.9097 18.342C21.8387 17.5622 21.5949 16.0487 22.3674 14.9643C22.5021 14.7737 22.6604 14.6099 22.8342 14.4718C23.2591 14.1348 23.7814 13.959 24.3101 13.959C24.5376 13.959 24.766 13.9912 24.9889 14.0584C25.24 14.133 25.4821 14.2517 25.7068 14.4138C25.9307 14.5767 26.1181 14.7719 26.2682 14.9882C26.8351 15.8085 26.8588 16.9334 26.2491 17.7905C25.7823 18.4478 25.0489 18.7977 24.3064 18.7977"/>
</mask>
<path d="M24.3046 18.7977C23.8205 18.7977 23.3328 18.6494 22.9097 18.342C21.8387 17.5622 21.5949 16.0487 22.3674 14.9643C22.5021 14.7737 22.6604 14.6099 22.8342 14.4718C23.2591 14.1348 23.7814 13.959 24.3101 13.959C24.5376 13.959 24.766 13.9912 24.9889 14.0584C25.24 14.133 25.4821 14.2517 25.7068 14.4138C25.9307 14.5767 26.1181 14.7719 26.2682 14.9882C26.8351 15.8085 26.8588 16.9334 26.2491 17.7905C25.7823 18.4478 25.0489 18.7977 24.3064 18.7977" fill="#FFFDF9"/>
<path d="M22.9097 18.342L22.4537 18.9682L22.4543 18.9686L22.9097 18.342ZM22.3674 14.9643L22.9983 15.4137L23 15.4113L22.3674 14.9643ZM22.8342 14.4718L22.3529 13.8648L22.3523 13.8653L22.8342 14.4718ZM24.9889 14.0584L24.7653 14.8001L24.7684 14.801L24.9889 14.0584ZM25.7068 14.4138L26.1627 13.7875L26.1598 13.7854L25.7068 14.4138ZM26.2682 14.9882L26.9055 14.5478L26.9047 14.5466L26.2682 14.9882ZM26.2491 17.7905L25.6179 17.3415L25.6175 17.342L26.2491 17.7905ZM24.3046 18.023C23.98 18.023 23.6525 17.9242 23.3651 17.7153L22.4543 18.9686C23.0131 19.3747 23.6611 19.5723 24.3046 19.5723V18.023ZM23.3656 17.7157C22.6402 17.1876 22.4706 16.1545 22.9983 15.4137L21.7364 14.5148C20.7191 15.943 21.0372 17.9369 22.4537 18.9682L23.3656 17.7157ZM23 15.4113C23.09 15.2839 23.1968 15.1731 23.3161 15.0783L22.3523 13.8653C22.124 14.0466 21.9141 14.2635 21.7348 14.5172L23 15.4113ZM23.3155 15.0787C23.6006 14.8526 23.9525 14.7336 24.3101 14.7336V13.1843C23.6103 13.1843 22.9176 13.417 22.3529 13.8648L23.3155 15.0787ZM24.3101 14.7336C24.4642 14.7336 24.6172 14.7554 24.7653 14.8001L25.2125 13.3167C24.9148 13.227 24.6109 13.1843 24.3101 13.1843V14.7336ZM24.7684 14.801C24.9341 14.8502 25.0978 14.9297 25.2538 15.0421L26.1598 13.7854C25.8663 13.5738 25.546 13.4158 25.2094 13.3158L24.7684 14.801ZM25.2509 15.04C25.4027 15.1505 25.5297 15.2827 25.6318 15.4299L26.9047 14.5466C26.7065 14.2611 26.4586 14.0029 26.1627 13.7875L25.2509 15.04ZM25.631 15.4286C26.0182 15.989 26.0328 16.7582 25.6179 17.3415L26.8804 18.2395C27.6848 17.1087 27.652 15.628 26.9055 14.5478L25.631 15.4286ZM25.6175 17.342C25.301 17.7878 24.8066 18.023 24.3064 18.023V19.5723C25.2913 19.5723 26.2637 19.1079 26.8807 18.2391L25.6175 17.342Z" fill="#1D2A2C" mask="url(#path-13-inside-4_1_6851)"/>
<path d="M15.4602 12.499L6.76206 4.05088L6.76198 4.0508C6.60061 3.89417 6.59499 3.63243 6.7505 3.46843C6.82945 3.38535 6.93316 3.34436 7.03816 3.34436C7.13774 3.34436 7.23602 3.38131 7.31276 3.45617L7.31335 3.45674L16.0191 11.9123C15.9129 11.9958 15.8115 12.088 15.7159 12.1887C15.6221 12.2872 15.5369 12.391 15.4602 12.499Z" fill="#FFFDF9" stroke="#1D2A2C" stroke-width="0.774648" stroke-linejoin="round"/>
<mask id="path-16-inside-5_1_6851" fill="white">
<path d="M17.7222 16.5496C17.1262 16.5496 16.5284 16.3259 16.0643 15.8757C15.7213 15.5416 15.4983 15.1282 15.3955 14.6918C15.2727 14.1708 15.3227 13.6166 15.5465 13.1222C15.6557 12.8819 15.805 12.6564 15.997 12.4557C16.188 12.2541 16.4055 12.093 16.6385 11.9733C16.9779 11.7984 17.3509 11.7109 17.724 11.7109C18.32 11.7109 18.916 11.9346 19.3801 12.3867C19.9342 12.9243 20.1763 13.6672 20.1016 14.3844C20.048 14.9008 19.8314 15.4035 19.4492 15.8058C18.9797 16.302 18.3519 16.5505 17.724 16.5505"/>
</mask>
<path d="M17.7222 16.5496C17.1262 16.5496 16.5284 16.3259 16.0643 15.8757C15.7213 15.5416 15.4983 15.1282 15.3955 14.6918C15.2727 14.1708 15.3227 13.6166 15.5465 13.1222C15.6557 12.8819 15.805 12.6564 15.997 12.4557C16.188 12.2541 16.4055 12.093 16.6385 11.9733C16.9779 11.7984 17.3509 11.7109 17.724 11.7109C18.32 11.7109 18.916 11.9346 19.3801 12.3867C19.9342 12.9243 20.1763 13.6672 20.1016 14.3844C20.048 14.9008 19.8314 15.4035 19.4492 15.8058C18.9797 16.302 18.3519 16.5505 17.724 16.5505" fill="#FFFDF9"/>
<path d="M16.0643 15.8757L15.5238 16.4306L15.5249 16.4318L16.0643 15.8757ZM15.3955 14.6918L16.1495 14.5142L16.1495 14.5141L15.3955 14.6918ZM15.5465 13.1222L14.8413 12.8017L14.8409 12.8027L15.5465 13.1222ZM15.997 12.4557L16.5567 12.9912L16.5592 12.9886L15.997 12.4557ZM16.6385 11.9733L16.9925 12.6623L16.9933 12.6619L16.6385 11.9733ZM19.3801 12.3867L18.8396 12.9416L18.8407 12.9426L19.3801 12.3867ZM20.1016 14.3844L19.3312 14.3042L19.3312 14.3043L20.1016 14.3844ZM19.4492 15.8058L18.8876 15.2722L18.8866 15.2734L19.4492 15.8058ZM17.7222 15.775C17.3204 15.775 16.9181 15.6248 16.6037 15.3197L15.5249 16.4318C16.1386 17.0271 16.932 17.3243 17.7222 17.3243V15.775ZM16.6048 15.3209C16.3718 15.0938 16.2199 14.8131 16.1495 14.5142L14.6415 14.8695C14.7767 15.4433 15.0707 15.9893 15.5238 16.4306L16.6048 15.3209ZM16.1495 14.5141C16.0653 14.157 16.1 13.7778 16.2522 13.4417L14.8409 12.8027C14.5454 13.4553 14.48 14.1846 14.6415 14.8696L16.1495 14.5141ZM16.2518 13.4427C16.3263 13.2788 16.4272 13.1266 16.5567 12.9912L15.4372 11.9202C15.1828 12.1862 14.9852 12.4851 14.8413 12.8017L16.2518 13.4427ZM16.5592 12.9886C16.6899 12.8507 16.8368 12.7423 16.9925 12.6623L16.2845 11.2843C15.9742 11.4437 15.6862 11.6575 15.4347 11.9228L16.5592 12.9886ZM16.9933 12.6619C17.2206 12.5448 17.4717 12.4856 17.724 12.4856V10.9363C17.2302 10.9363 16.7351 11.052 16.2836 11.2847L16.9933 12.6619ZM17.724 12.4856C18.125 12.4856 18.525 12.6352 18.8396 12.9416L19.9206 11.8317C19.307 11.2341 18.515 10.9363 17.724 10.9363V12.4856ZM18.8407 12.9426C19.2159 13.3067 19.3824 13.8114 19.3312 14.3042L20.8721 14.4645C20.9701 13.523 20.6525 12.5419 19.9195 11.8307L18.8407 12.9426ZM19.3312 14.3043C19.2943 14.6588 19.1465 14.9997 18.8876 15.2722L20.0109 16.3393C20.5163 15.8072 20.8016 15.1428 20.8721 14.4645L19.3312 14.3043ZM18.8866 15.2734C18.5688 15.6092 18.147 15.7759 17.724 15.7759V17.3252C18.5567 17.3252 19.3907 16.9947 20.0119 16.3382L18.8866 15.2734Z" fill="#1D2A2C" mask="url(#path-16-inside-5_1_6851)"/>
</svg>
