<svg width="14" height="14" viewBox="0 0 14 14" fill="none" xmlns="http://www.w3.org/2000/svg">
<g id="Group">
<path id="Vector" d="M12.6673 3H1.33398M11.556 4.66667L11.2493 9.26667C11.1313 11.036 11.0727 11.9207 10.496 12.46C9.91932 13 9.03198 13 7.25865 13H6.74265C4.96932 13 4.08198 13 3.50532 12.46C2.92865 11.9207 2.86932 11.036 2.75198 9.26667L2.44532 4.66667" stroke="#344B4E" stroke-linecap="round"/>
<path id="Vector_2" d="M3.33398 3H3.40732C3.67562 2.99314 3.9356 2.90548 4.15327 2.74847C4.37093 2.59147 4.53615 2.37243 4.62732 2.12L4.64998 2.05133L4.71465 1.85733C4.76998 1.69133 4.79798 1.60867 4.83465 1.538C4.90679 1.39959 5.01032 1.27999 5.13697 1.18877C5.26361 1.09755 5.40985 1.03724 5.56398 1.01267C5.64198 1 5.72932 1 5.90398 1H8.09732C8.27198 1 8.35932 1 8.43732 1.01267C8.59145 1.03724 8.73769 1.09755 8.86433 1.18877C8.99098 1.27999 9.09451 1.39959 9.16665 1.538C9.20332 1.60867 9.23132 1.69133 9.28665 1.85733L9.35132 2.05133C9.4358 2.33218 9.61053 2.57734 9.84844 2.74884C10.0863 2.92034 10.3742 3.00862 10.6673 3" stroke="#344B4E"/>
</g>
</svg>
