<svg width="40" height="40" viewBox="0 0 40 40" fill="none" xmlns="http://www.w3.org/2000/svg">
<path d="M19.9993 5L38.3327 18.75L36.3327 21.4167L33.3327 19.1667V35H6.66602V19.1667L3.66602 21.4167L1.66602 18.75L19.9993 5ZM12.2493 20.0833C12.2493 21.5556 13.041 23.125 14.6243 24.7917C16.2077 26.4583 17.9993 28.1944 19.9993 30C21.9993 28.1944 23.791 26.4583 25.3743 24.7917C26.9577 23.125 27.7493 21.5556 27.7493 20.0833C27.7493 18.8611 27.3327 17.8472 26.4993 17.0417C25.666 16.2361 24.666 15.8333 23.4993 15.8333C22.7771 15.8333 22.1171 15.9794 21.5193 16.2717C20.9216 16.5639 20.4149 16.9456 19.9993 17.4167C19.5827 16.9444 19.0616 16.5628 18.436 16.2717C17.8105 15.9806 17.1649 15.8344 16.4993 15.8333C15.3327 15.8333 14.3327 16.2361 13.4993 17.0417C12.666 17.8472 12.2493 18.8611 12.2493 20.0833Z" stroke="#1D2A2C" stroke-linejoin="round"/>
</svg>
