<svg width="32" height="32" viewBox="0 0 32 32" fill="none" xmlns="http://www.w3.org/2000/svg">
<path d="M20.4194 22.7084C20.6773 20.5945 19.3205 19.2467 15.738 18.0992C14.0023 17.5052 13.1848 16.7267 13.2039 15.6569C13.2768 14.4689 14.379 13.6038 15.8412 13.5756C16.9928 13.5874 18.116 13.9353 19.0738 14.5769C19.2039 14.6579 19.2947 14.6444 19.3687 14.5319C19.4697 14.3699 19.722 13.9773 19.806 13.8344C19.8632 13.7444 19.8744 13.6251 19.7298 13.5194C19.5224 13.3652 18.9404 13.0525 18.6276 12.9209C17.7369 12.5417 16.7796 12.3451 15.812 12.3426C13.6704 12.3516 11.9851 13.7095 11.8427 15.5219C11.7518 16.8302 12.3977 17.8923 13.7825 18.7023C14.0774 18.8733 15.6663 19.5077 16.2987 19.7057C18.2878 20.3267 19.3205 21.4405 19.0772 22.7399C18.8563 23.9177 17.6207 24.6794 15.9174 24.7019C14.5685 24.6501 13.353 24.0977 12.4112 23.3631L12.2531 23.2394C12.1364 23.1494 12.0086 23.155 11.9312 23.2731C11.8752 23.3598 11.5096 23.8885 11.4177 24.0269C11.3314 24.1484 11.3785 24.2159 11.4682 24.2901C11.8606 24.6197 12.3842 24.9797 12.7397 25.162C13.7244 25.665 14.8074 25.9443 15.9118 25.9799C16.707 26.0176 17.5008 25.8817 18.2385 25.5816C19.4663 25.0585 20.2602 24.0134 20.4194 22.7084ZM16.0004 4.07613C13.6816 4.07613 11.7911 6.26987 11.7025 9.01487H20.2972C20.2063 6.26875 18.317 4.075 16.0004 4.075V4.07613ZM24.8036 29.4989L24.7139 29.5L7.01552 29.4977C5.81126 29.4527 4.92657 28.474 4.80547 27.2579L4.79425 27.0385L4.0015 9.57175C3.99614 9.50155 4.00515 9.43098 4.02797 9.3644C4.05079 9.29782 4.08694 9.23662 4.13419 9.18457C4.18145 9.13252 4.23882 9.09071 4.30278 9.06172C4.36673 9.03273 4.43592 9.01717 4.50608 9.016H10.0845C10.2202 5.389 12.8159 2.5 16.0004 2.5C19.1826 2.5 21.7784 5.39013 21.9152 9.01375H27.4857C27.5556 9.01381 27.6246 9.02812 27.6888 9.05581C27.7529 9.0835 27.8108 9.12399 27.8588 9.17482C27.9068 9.22565 27.9441 9.28576 27.9682 9.35148C27.9924 9.4172 28.0029 9.48717 27.9993 9.55712L27.1325 27.0936L27.1247 27.241C27.0193 28.4718 26.027 29.4651 24.8036 29.4977V29.4989Z" fill="#344B4E"/>
</svg>
