<svg width="40" height="40" viewBox="0 0 40 40" fill="none" xmlns="http://www.w3.org/2000/svg">
<path d="M20.0957 6.44336C21.5304 13.2392 31.7786 15.4869 32.2702 23.083C32.8339 31.779 25.4451 33.556 20.0957 33.556C14.7462 33.556 7.63109 31.3899 7.92275 23.083C8.18775 15.4752 17.4605 15.1245 20.0957 6.44336Z" fill="#FFFDF9" stroke="#1D2A2C" stroke-width="0.774648" stroke-linejoin="round"/>
<path d="M10.3688 25.4732C10.3688 26.7772 9.40212 27.8347 8.21195 27.8347C7.02179 27.8347 6.05664 26.7772 6.05664 25.4732C6.05664 24.1693 7.021 23.1133 8.21195 23.1133C9.4029 23.1133 10.3688 24.1709 10.3688 25.4732Z" fill="#FFFDF9" stroke="#1D2A2C" stroke-width="0.774648" stroke-linejoin="round"/>
<path d="M33.9442 25.4732C33.9442 26.7772 32.9791 27.8347 31.7858 27.8347C30.5925 27.8347 29.6289 26.7772 29.6289 25.4732C29.6289 24.1693 30.5964 23.1133 31.7858 23.1133C32.9752 23.1133 33.9442 24.1709 33.9442 25.4732Z" fill="#FFFDF9" stroke="#1D2A2C" stroke-width="0.774648" stroke-linejoin="round"/>
<path d="M14.3203 25.1824C14.3203 25.8446 13.7832 26.3844 13.1183 26.3844C12.4535 26.3844 11.918 25.8446 11.918 25.1824C11.918 24.5203 12.4566 23.9766 13.1183 23.9766C13.7801 23.9766 14.3203 24.5179 14.3203 25.1824Z" fill="#1D2A2C"/>
<path d="M28.0851 25.1824C28.0851 25.8446 27.5457 26.3844 26.8824 26.3844C26.2191 26.3844 25.6797 25.8446 25.6797 25.1824C25.6797 24.5203 26.2191 23.9766 26.8824 23.9766C27.5457 23.9766 28.0851 24.5179 28.0851 25.1824Z" fill="#1D2A2C"/>
<path d="M14.6925 29.4329C15.2609 30.0645 16.0348 30.5791 16.9419 30.9385C17.849 31.297 18.891 31.5002 19.9996 31.5002C21.109 31.5002 22.151 31.297 23.0582 30.9385C23.9653 30.5791 24.7383 30.0645 25.3068 29.4329C25.4181 29.3089 25.4087 29.1175 25.284 29.0053C25.1601 28.8939 24.9688 28.9033 24.8567 29.0281C24.3628 29.5781 23.6681 30.0464 22.8355 30.3752C22.0036 30.7047 21.0353 30.8945 19.9996 30.8945C18.9647 30.8945 17.9964 30.7047 17.1646 30.3752C16.3319 30.0464 15.6365 29.5773 15.1425 29.0281C15.0312 28.9041 14.8399 28.8939 14.7152 29.0053C14.5914 29.1167 14.5812 29.3082 14.6925 29.4329Z" fill="#1D2A2C"/>
<path d="M20.2807 14.0028C19.4512 14.4595 18.7997 15.1185 18.3583 15.8834C17.9161 16.6484 17.6816 17.5192 17.6816 18.405C17.6816 19.2241 17.8831 20.0565 18.3049 20.8238C18.5919 21.3447 19.0059 21.7535 19.4857 22.0312C19.9663 22.3089 20.5128 22.4564 21.0687 22.4564C21.5822 22.4564 22.1044 22.3301 22.585 22.0657C22.9198 21.8814 23.184 21.613 23.3628 21.3031C23.5415 20.9932 23.6356 20.641 23.6356 20.2824C23.6356 19.9506 23.5541 19.6124 23.3831 19.3017C23.26 19.0781 23.0805 18.9008 22.8743 18.7816C22.6673 18.6623 22.4321 18.5988 22.1922 18.598C21.9703 18.598 21.7437 18.6529 21.5367 18.7674C21.3799 18.8545 21.2545 18.9808 21.1706 19.1268C21.0867 19.2727 21.042 19.4382 21.042 19.6069C21.042 19.7623 21.0804 19.9215 21.1604 20.0667C21.2545 20.2369 21.4677 20.2989 21.6379 20.2048C21.808 20.1106 21.87 19.8964 21.7759 19.727C21.7547 19.6877 21.7453 19.6485 21.7453 19.6069C21.7453 19.5622 21.7571 19.5175 21.7798 19.4783C21.8025 19.439 21.8339 19.4069 21.877 19.3825C21.9781 19.3268 22.0848 19.3009 22.1914 19.3009C22.3067 19.3009 22.4219 19.3315 22.5215 19.3896C22.6218 19.4477 22.7065 19.5316 22.7669 19.6399C22.879 19.8439 22.9323 20.0627 22.9323 20.2801C22.9323 20.5147 22.8704 20.7469 22.7536 20.9493C22.6367 21.1517 22.4658 21.3251 22.2455 21.4467C21.8707 21.653 21.4677 21.7503 21.0687 21.7503C20.6367 21.7503 20.2109 21.6358 19.8377 21.42C19.4645 21.2043 19.1446 20.8881 18.9204 20.4825C18.5566 19.8211 18.3841 19.1079 18.3841 18.4034C18.3841 17.6424 18.5856 16.8916 18.9659 16.2341C19.3461 15.5767 19.9036 15.0118 20.6186 14.6171C20.7888 14.5238 20.8507 14.3096 20.7574 14.1394C20.6641 13.9691 20.4501 13.9071 20.2799 14.0005" fill="#1D2A2C"/>
</svg>
